<svg width="272" height="267" viewBox="0 0 272 267" fill="none" xmlns="http://www.w3.org/2000/svg">
<path d="M160.5 -47L190.935 31.8245L265.259 -9.12696L237.563 70.6877L321 86.7709L248.133 130.23L301.641 195.822L217.698 182.59L216.241 267L160.5 203.269L104.759 267L103.302 182.59L19.3587 195.822L72.867 130.23L0 86.7709L83.4368 70.6877L55.7411 -9.12696L130.065 31.8245L160.5 -47Z" fill="white"/>
<path d="M136.449 73.2373L125.244 83.0848L113.346 127.489L126.023 149.447L172.204 161.821L183.67 156.326L194.161 149.143L205.917 99.9418L199.654 87.7933L193.739 81.4492L147.559 69.0753L136.449 73.2373Z" fill="#F1C851"/>
<path fill-rule="evenodd" clip-rule="evenodd" d="M197.791 85.8663L142.73 71.1127L145.109 62.2319L200.17 76.9855L197.791 85.8663Z" fill="#211F22"/>
<path fill-rule="evenodd" clip-rule="evenodd" d="M175.897 167.57L120.836 152.816L123.216 143.936L178.277 158.689L175.897 167.57Z" fill="#211F22"/>
<path fill-rule="evenodd" clip-rule="evenodd" d="M204.291 97.1266L195.41 94.747L197.79 85.8662L206.671 88.2458L204.291 97.1266Z" fill="#211F22"/>
<path fill-rule="evenodd" clip-rule="evenodd" d="M140.35 79.9938L131.469 77.6142L133.849 68.7334L142.729 71.113L140.35 79.9938Z" fill="#211F22"/>
<path fill-rule="evenodd" clip-rule="evenodd" d="M148.674 102.213L139.793 99.8332L142.173 90.9524L151.054 93.332L148.674 102.213Z" fill="#211F22"/>
<path fill-rule="evenodd" clip-rule="evenodd" d="M143.2 122.638L134.32 120.258L136.699 111.378L145.58 113.757L143.2 122.638Z" fill="#211F22"/>
<path fill-rule="evenodd" clip-rule="evenodd" d="M169.684 139.253L140.822 131.519L143.201 122.639L172.064 130.372L169.684 139.253Z" fill="#211F22"/>
<path fill-rule="evenodd" clip-rule="evenodd" d="M185.973 112.207L177.092 109.828L179.472 100.947L188.352 103.327L185.973 112.207Z" fill="#211F22"/>
<path fill-rule="evenodd" clip-rule="evenodd" d="M180.5 132.633L171.619 130.254L173.999 121.373L182.88 123.752L180.5 132.633Z" fill="#211F22"/>
<path fill-rule="evenodd" clip-rule="evenodd" d="M123.216 143.935L114.335 141.556L116.715 132.675L125.596 135.055L123.216 143.935Z" fill="#211F22"/>
<path fill-rule="evenodd" clip-rule="evenodd" d="M187.158 161.069L178.278 158.689L180.657 149.808L189.538 152.188L187.158 161.069Z" fill="#211F22"/>
<path fill-rule="evenodd" clip-rule="evenodd" d="M213.171 99.5064L198.418 154.567L189.537 152.188L204.291 97.1267L213.171 99.5064Z" fill="#211F22"/>
<path fill-rule="evenodd" clip-rule="evenodd" d="M131.469 77.614L116.716 132.675L107.835 130.295L122.589 75.2344L131.469 77.614Z" fill="#211F22"/>
</svg>
