<svg width="228" height="228" viewBox="0 0 228 228" fill="none" xmlns="http://www.w3.org/2000/svg">
<path fill-rule="evenodd" clip-rule="evenodd" d="M141.606 196.976C187.563 181.599 212.353 131.878 196.976 85.9212C181.599 39.9642 131.878 15.1742 85.9211 30.5512C39.9642 45.9282 15.1742 95.6492 30.5512 141.606C45.9282 187.563 95.6492 212.353 141.606 196.976ZM142.285 199.006C189.363 183.254 214.758 132.32 199.006 85.2421C183.254 38.1642 132.32 12.7696 85.242 28.5216C38.1642 44.2737 12.7696 95.2074 28.5216 142.285C44.2736 189.363 95.2073 214.758 142.285 199.006Z" fill="black"/>
<path d="M92.5115 93.279C97.0975 106.985 97.4336 119.228 93.2622 120.623C89.0907 122.019 81.9914 112.04 77.4053 98.3334C72.8193 84.6272 72.4832 72.3846 76.6547 70.9889C80.8261 69.5931 87.9255 79.5727 92.5115 93.279Z" fill="black"/>
<path d="M135.672 78.8374C140.258 92.5436 140.352 104.867 135.883 106.362C131.413 107.858 124.072 97.9591 119.486 84.2529C114.9 70.5466 114.806 58.2232 119.275 56.7278C123.745 55.2324 131.086 65.1311 135.672 78.8374Z" fill="black"/>
<path fill-rule="evenodd" clip-rule="evenodd" d="M167.863 121.259C150.276 156.996 105.323 172.06 70.7473 153.737L71.7272 151.841C105.211 169.585 148.881 154.996 165.957 120.296L167.863 121.259Z" fill="black"/>
<path fill-rule="evenodd" clip-rule="evenodd" d="M69.8279 161.749C68.1219 152.425 74.7618 146.593 78.2581 144.84L79.1902 146.699C76.1142 148.242 70.4033 153.34 71.8735 161.374L69.8279 161.749Z" fill="black"/>
<path fill-rule="evenodd" clip-rule="evenodd" d="M175.572 126.368C171.324 117.895 162.511 117.233 158.664 117.937L159.038 119.983C162.423 119.364 170.052 119.998 173.713 127.3L175.572 126.368Z" fill="black"/>
</svg>
