<svg width="101" height="97" viewBox="0 0 101 97" fill="none" xmlns="http://www.w3.org/2000/svg">
<path d="M48.5601 25.316L27.2622 5.53735L17.0392 7.11964L5.1123 16.6134L7.66806 49.8414L29.8179 70.4112L42.5967 83.0695L50.264 91.772L60.487 80.696L72.4139 67.2466L84.3407 60.9174L93.7118 45.8857V16.6134L84.3407 5.53735L72.4139 7.11964L58.7832 18.9868L52.8197 26.8982L48.5601 25.316Z" fill="#EF81A4"/>
<path d="M11.9229 53.7977H23.8497V64.8737H11.9229V53.7977Z" fill="#211F22"/>
<path d="M23.8535 64.874H35.7804V75.95H23.8535V64.874Z" fill="#211F22"/>
<path d="M35.7783 75.95H47.7052V87.026H35.7783V75.95Z" fill="#211F22"/>
<path d="M52.8213 75.95H64.7481V87.026H52.8213V75.95Z" fill="#211F22"/>
<path d="M64.7451 64.874H76.672V75.95H64.7451V64.874Z" fill="#211F22"/>
<path d="M76.6748 53.7977H88.6017V64.8737H76.6748V53.7977Z" fill="#211F22"/>
<path d="M11.9229 0H32.3689V11.076H11.9229V0Z" fill="#211F22"/>
<path d="M68.1523 0H88.5984V11.076H68.1523V0Z" fill="#211F22"/>
<path d="M32.3721 11.0763H44.2989V22.1523H32.3721V11.0763Z" fill="#211F22"/>
<path d="M44.2988 22.1522H56.2257V33.2282H44.2988V22.1522Z" fill="#211F22"/>
<path d="M44.2988 85.4432H56.2257V96.5193H44.2988V85.4432Z" fill="#211F22"/>
<path d="M56.2295 11.0763H68.1564V22.1523H56.2295V11.0763Z" fill="#211F22"/>
<path d="M0 11.0763H11.9269V53.7981H0V11.0763Z" fill="#211F22"/>
<path d="M88.5986 11.0763H100.525V53.7981H88.5986V11.0763Z" fill="#211F22"/>
</svg>
