<svg width="189" height="91" viewBox="0 0 189 91" fill="none" xmlns="http://www.w3.org/2000/svg">
<path d="M50.4062 65.7812C50.5938 63.9896 50.8229 61.9167 51.0938 59.5625C51.3646 57.2083 51.6562 54.75 51.9688 52.1875C52.2812 49.6042 52.5938 47.0104 52.9062 44.4062C53.2396 41.8021 53.5625 39.3646 53.875 37.0938C52.7708 39.2188 51.6562 41.3542 50.5312 43.5C49.4062 45.6458 48.3333 47.6875 47.3125 49.625C46.3125 51.5417 45.3854 53.2812 44.5312 54.8438C43.6979 56.4062 43.0208 57.6667 42.5 58.625C42.0208 59.2708 41.5417 59.8854 41.0625 60.4688C40.5833 61.0521 40.1042 61.5625 39.625 62C39.1667 62.4375 38.7083 62.7917 38.25 63.0625C37.7917 63.3125 37.3438 63.4375 36.9062 63.4375C36.3229 63.4375 35.8542 63.3125 35.5 63.0625C35.1667 62.8125 35 62.4375 35 61.9375C35 61.8333 35 61.7396 35 61.6562C35.0208 61.5521 35.0521 61.4479 35.0938 61.3438C34.9688 58.3854 34.875 55.4062 34.8125 52.4062C34.75 49.3854 34.7188 46.4167 34.7188 43.5C34.7188 42.8125 34.7188 42.125 34.7188 41.4375C34.7188 40.75 34.7292 40.0729 34.75 39.4062C33.9167 41.2812 33.0104 43.2292 32.0312 45.25C31.0521 47.2708 30.0312 49.2708 28.9688 51.25C27.9062 53.2083 26.8125 55.1042 25.6875 56.9375C24.5625 58.75 23.4375 60.4062 22.3125 61.9062C21.1875 63.3854 20.0729 64.6562 18.9688 65.7188C17.8854 66.7604 16.8438 67.4896 15.8438 67.9062C14.9688 68.2604 14.2083 68.5104 13.5625 68.6562C12.9167 68.8229 12.3438 68.9062 11.8438 68.9062C11.0938 68.9062 10.5312 68.75 10.1562 68.4375C9.80208 68.1458 9.625 67.7812 9.625 67.3438C9.625 66.8229 9.84375 66.2812 10.2812 65.7188C10.7188 65.1562 11.3333 64.7188 12.125 64.4062C13.0833 64.0312 14.125 63.2083 15.25 61.9375C16.3958 60.6458 17.5729 59.0833 18.7812 57.25C19.9896 55.4167 21.2083 53.375 22.4375 51.125C23.6667 48.875 24.8542 46.5938 26 44.2812C27.1667 41.9688 28.2604 39.7083 29.2812 37.5C30.3021 35.2708 31.2083 33.2604 32 31.4688C32.7917 29.6771 33.4375 28.1875 33.9375 27C34.4583 25.7917 34.7812 25.0417 34.9062 24.75C35.1979 24.1042 35.6042 23.6354 36.125 23.3438C36.6458 23.0521 37.1771 22.9062 37.7188 22.9062C38.4688 22.9062 38.9896 23.1146 39.2812 23.5312C39.5729 23.9271 39.7188 24.6458 39.7188 25.6875C39.8854 27 40.0208 28.2396 40.125 29.4062C40.25 30.5521 40.3542 31.7396 40.4375 32.9688C40.5208 34.1771 40.5729 35.4896 40.5938 36.9062C40.6354 38.3021 40.6562 39.9167 40.6562 41.75C40.6562 43.0625 40.625 44.5104 40.5625 46.0938C40.5208 47.6771 40.5 49.4479 40.5 51.4062C43 46.8646 45.2083 42.8646 47.125 39.4062C49.0625 35.9271 50.7396 33.0208 52.1562 30.6875C53.5938 28.3333 54.8021 26.5625 55.7812 25.375C56.7604 24.1667 57.5417 23.5625 58.125 23.5625H58.3438C58.4062 23.5625 58.4688 23.5625 58.5312 23.5625C58.5938 23.5417 58.6562 23.5312 58.7188 23.5312C59.2188 23.5312 59.6146 23.8438 59.9062 24.4688C60.1979 25.0938 60.3438 25.9062 60.3438 26.9062C60.2604 27.9271 60.1354 29.1979 59.9688 30.7188C59.8021 32.2396 59.6042 33.9167 59.375 35.75C59.1667 37.5625 58.9375 39.4792 58.6875 41.5C58.4375 43.5208 58.1875 45.5312 57.9375 47.5312C57.6875 49.5104 57.4479 51.4375 57.2188 53.3125C57.0104 55.1875 56.8333 56.8854 56.6875 58.4062C56.6458 58.6771 56.625 58.9583 56.625 59.25C56.625 59.5208 56.625 59.8021 56.625 60.0938C56.625 60.6354 56.6354 61.1875 56.6562 61.75C56.6771 62.2917 56.6875 62.8333 56.6875 63.375C56.6875 64 56.6562 64.6354 56.5938 65.2812C56.5312 65.9062 56.3542 66.4792 56.0625 67C55.7917 67.5 55.3542 67.9062 54.75 68.2188C54.1458 68.5521 53.3125 68.7188 52.25 68.7188C51.6875 68.7188 51.2396 68.5 50.9062 68.0625C50.5729 67.6458 50.4062 66.8854 50.4062 65.7812ZM76.5625 50.9375C75.5833 50.9375 74.6354 51.1875 73.7188 51.6875C72.8021 52.1875 71.9896 52.8438 71.2812 53.6562C70.5729 54.4688 70.0104 55.3854 69.5938 56.4062C69.1771 57.4062 68.9688 58.4167 68.9688 59.4375C68.9688 59.8542 68.9896 60.2917 69.0312 60.75C69.0938 61.1875 69.2188 61.5938 69.4062 61.9688C69.5938 62.3438 69.8542 62.6562 70.1875 62.9062C70.5417 63.1562 71.0104 63.2812 71.5938 63.2812C72.0521 63.2812 72.5833 63.0833 73.1875 62.6875C73.8125 62.2708 74.4479 61.75 75.0938 61.125C75.7604 60.4792 76.4062 59.7812 77.0312 59.0312C77.6562 58.2604 78.2188 57.5104 78.7188 56.7812C79.2188 56.0521 79.625 55.3958 79.9375 54.8125C80.25 54.2292 80.4062 53.8021 80.4062 53.5312C80.4062 53.1354 80.2708 52.7812 80 52.4688C79.7292 52.1354 79.3958 51.8542 79 51.625C78.6042 51.3958 78.1771 51.2292 77.7188 51.125C77.2812 51 76.8958 50.9375 76.5625 50.9375ZM98.2188 59C97.8438 59.3542 97.3438 59.8438 96.7188 60.4688C96.0938 61.0938 95.375 61.7708 94.5625 62.5C93.7708 63.2292 92.9167 63.9688 92 64.7188C91.1042 65.4479 90.1771 66.1146 89.2188 66.7188C88.2812 67.3229 87.3542 67.8125 86.4375 68.1875C85.5208 68.5833 84.6562 68.7812 83.8438 68.7812C83.1146 68.7812 82.4896 68.625 81.9688 68.3125C81.4479 68 81.0104 67.5938 80.6562 67.0938C80.3229 66.5938 80.0729 66.0312 79.9062 65.4062C79.7396 64.7604 79.6562 64.1042 79.6562 63.4375C79.6562 63 79.6875 62.5729 79.75 62.1562C79.8125 61.7188 79.9167 61.3125 80.0625 60.9375C79.4167 61.8125 78.6771 62.7188 77.8438 63.6562C77.0312 64.5729 76.1458 65.4167 75.1875 66.1875C74.25 66.9375 73.2604 67.5521 72.2188 68.0312C71.1979 68.5312 70.1562 68.7812 69.0938 68.7812C68.5521 68.7812 67.9167 68.6667 67.1875 68.4375C66.4792 68.2292 65.8021 67.875 65.1562 67.375C64.5104 66.875 63.9688 66.2292 63.5312 65.4375C63.0938 64.6458 62.875 63.6771 62.875 62.5312C62.875 61.6771 63 60.6562 63.25 59.4688C63.5208 58.2812 63.9167 57.0521 64.4375 55.7812C64.9792 54.4896 65.6562 53.2188 66.4688 51.9688C67.3021 50.7188 68.2812 49.6042 69.4062 48.625C70.5312 47.625 71.8125 46.8229 73.25 46.2188C74.6875 45.5938 76.2917 45.2812 78.0625 45.2812C78.9792 45.2812 79.7812 45.3958 80.4688 45.625C81.1562 45.8542 81.7396 46.1042 82.2188 46.375C82.7604 46.7083 83.2396 47.0729 83.6562 47.4688C84.0104 47.2812 84.375 47.1042 84.75 46.9375C85.0625 46.7917 85.3854 46.6667 85.7188 46.5625C86.0729 46.4375 86.375 46.375 86.625 46.375C87.4167 46.375 88.0625 46.5938 88.5625 47.0312C89.0625 47.4688 89.3125 47.9479 89.3125 48.4688C89.3125 48.6146 89.3021 48.7292 89.2812 48.8125C89.1771 49.2083 89.0104 49.7083 88.7812 50.3125C88.5729 50.9167 88.3333 51.5938 88.0625 52.3438C87.7917 53.0729 87.5104 53.8438 87.2188 54.6562C86.9479 55.4479 86.6979 56.2292 86.4688 57C86.2396 57.7708 86.0521 58.5 85.9062 59.1875C85.7604 59.8542 85.6875 60.4271 85.6875 60.9062C85.6875 61.5312 85.7917 62.0521 86 62.4688C86.2083 62.8646 86.5625 63.0625 87.0625 63.0625C87.375 63.0625 87.7396 62.9688 88.1562 62.7812C88.5938 62.5729 89.0625 62.3021 89.5625 61.9688C90.0625 61.6354 90.5729 61.2604 91.0938 60.8438C91.6354 60.4062 92.1562 59.9688 92.6562 59.5312C93.8229 58.4896 95.0625 57.3021 96.375 55.9688C96.7083 55.6979 97.0312 55.5625 97.3438 55.5625C97.7604 55.5625 98.1042 55.7708 98.375 56.1875C98.6667 56.5833 98.8125 57.0312 98.8125 57.5312C98.8125 58.1146 98.6146 58.6042 98.2188 59ZM99.9688 49.0312C100.385 48.1354 100.906 47.4688 101.531 47.0312C102.156 46.5938 102.771 46.375 103.375 46.375C103.875 46.375 104.323 46.5625 104.719 46.9375C105.115 47.2917 105.312 47.8229 105.312 48.5312C105.312 48.8021 105.281 49.0938 105.219 49.4062C105.156 49.7188 105.042 50.0521 104.875 50.4062C105.333 49.8229 105.99 49.2292 106.844 48.625C107.698 48 108.635 47.4479 109.656 46.9688C110.698 46.4688 111.76 46.0625 112.844 45.75C113.948 45.4375 114.99 45.2812 115.969 45.2812C117.073 45.2812 117.99 45.5521 118.719 46.0938C119.469 46.6146 119.844 47.5104 119.844 48.7812C119.844 49.5312 119.729 50.3125 119.5 51.125C119.271 51.9375 118.969 52.75 118.594 53.5625C118.24 54.375 117.833 55.1771 117.375 55.9688C116.938 56.7396 116.5 57.4688 116.062 58.1562C115.625 58.8438 115.219 59.4792 114.844 60.0625C114.49 60.625 114.208 61.0938 114 61.4688C113.729 61.8021 113.594 62.1875 113.594 62.625C113.594 62.7917 113.646 62.9375 113.75 63.0625C113.854 63.1875 114.021 63.25 114.25 63.25C114.396 63.25 114.562 63.2396 114.75 63.2188C114.938 63.1771 115.167 63.0625 115.438 62.875C116.562 62.4583 117.708 61.9375 118.875 61.3125C120.062 60.6875 121.198 60.0312 122.281 59.3438C123.365 58.6354 124.354 57.9375 125.25 57.25C126.167 56.5417 126.927 55.9062 127.531 55.3438C127.698 55.1979 127.865 55.0938 128.031 55.0312C128.198 54.9688 128.354 54.9375 128.5 54.9375C128.854 54.9375 129.125 55.0729 129.312 55.3438C129.521 55.6146 129.625 55.9583 129.625 56.375C129.625 57.0208 129.417 57.7396 129 58.5312C128.604 59.3229 127.969 60.0625 127.094 60.75C125.906 61.6042 124.812 62.3854 123.812 63.0938C122.833 63.8021 121.823 64.4688 120.781 65.0938C119.76 65.6979 118.656 66.2708 117.469 66.8125C116.302 67.3333 114.927 67.8229 113.344 68.2812C112.802 68.4479 112.302 68.5729 111.844 68.6562C111.406 68.7396 111 68.7812 110.625 68.7812C109.521 68.7812 108.708 68.4792 108.188 67.875C107.688 67.25 107.438 66.3854 107.438 65.2812C107.438 65.1354 107.438 65 107.438 64.875C107.458 64.7292 107.479 64.5729 107.5 64.4062C107.542 63.7604 107.708 63.0521 108 62.2812C108.312 61.5104 108.677 60.7188 109.094 59.9062C109.531 59.0938 109.99 58.2917 110.469 57.5C110.948 56.6875 111.385 55.9271 111.781 55.2188C112.198 54.4896 112.542 53.8438 112.812 53.2812C113.083 52.7188 113.219 52.2604 113.219 51.9062C113.219 51.5938 113.125 51.3333 112.938 51.125C112.771 50.8958 112.51 50.7812 112.156 50.7812C110.823 50.7812 109.552 51.1771 108.344 51.9688C107.156 52.7604 106.042 53.7396 105 54.9062C103.958 56.0521 103 57.2708 102.125 58.5625C101.25 59.8542 100.479 61.0104 99.8125 62.0312C99.3958 62.7188 99.0104 63.4583 98.6562 64.25C98.3229 65.0208 97.9688 65.75 97.5938 66.4375C97.2188 67.1042 96.7917 67.6562 96.3125 68.0938C95.8542 68.5521 95.2708 68.7812 94.5625 68.7812C93.8333 68.7812 93.2604 68.5521 92.8438 68.0938C92.4271 67.6354 92.2188 67.0729 92.2188 66.4062C92.2188 66.0521 92.3646 65.4792 92.6562 64.6875C92.9479 63.8958 93.3229 62.9792 93.7812 61.9375C94.2396 60.8958 94.75 59.7812 95.3125 58.5938C95.8958 57.3854 96.4688 56.1979 97.0312 55.0312C97.6146 53.8438 98.1667 52.7292 98.6875 51.6875C99.2083 50.6458 99.6354 49.7604 99.9688 49.0312ZM132.25 40.9688C132.25 40.4896 132.333 40 132.5 39.5C132.688 38.9792 132.958 38.5104 133.312 38.0938C133.667 37.6771 134.104 37.3333 134.625 37.0625C135.167 36.7917 135.802 36.6562 136.531 36.6562C137.74 36.6562 138.583 36.8958 139.062 37.375C139.542 37.8333 139.781 38.4167 139.781 39.125C139.781 39.5208 139.698 39.9583 139.531 40.4375C139.385 40.9167 139.156 41.3646 138.844 41.7812C138.531 42.1771 138.125 42.5104 137.625 42.7812C137.125 43.0521 136.531 43.1875 135.844 43.1875C134.552 43.1875 133.646 42.9896 133.125 42.5938C132.604 42.1771 132.312 41.6354 132.25 40.9688ZM128.812 48C129.167 47.4167 129.573 47 130.031 46.75C130.49 46.5 130.958 46.375 131.438 46.375C132.229 46.375 132.906 46.6354 133.469 47.1562C134.052 47.6562 134.344 48.3021 134.344 49.0938C134.323 49.2812 134.292 49.4688 134.25 49.6562C134.229 49.8438 134.167 50.0312 134.062 50.2188C133.771 50.7604 133.531 51.2188 133.344 51.5938C133.156 51.9688 132.979 52.3229 132.812 52.6562C132.667 52.9688 132.521 53.2812 132.375 53.5938C132.229 53.9062 132.052 54.2812 131.844 54.7188C131.594 55.2396 131.312 55.8125 131 56.4375C130.688 57.0417 130.385 57.6667 130.094 58.3125C129.823 58.9583 129.583 59.5938 129.375 60.2188C129.188 60.8438 129.094 61.4167 129.094 61.9375C129.094 62.5 129.229 62.875 129.5 63.0625C129.792 63.2292 130.198 63.3125 130.719 63.3125C131.302 63.3125 131.906 63.1875 132.531 62.9375C133.177 62.6875 133.823 62.3646 134.469 61.9688C135.115 61.5729 135.75 61.125 136.375 60.625C137 60.1042 137.583 59.5833 138.125 59.0625C138.688 58.5417 139.198 58.0417 139.656 57.5625C140.135 57.0833 140.531 56.6562 140.844 56.2812C141.26 55.8854 141.677 55.6875 142.094 55.6875C142.469 55.6875 142.771 55.8542 143 56.1875C143.25 56.5208 143.375 56.9479 143.375 57.4688C143.375 57.9479 143.25 58.4583 143 59C142.771 59.5417 142.385 60.0521 141.844 60.5312C140.781 61.6146 139.698 62.6562 138.594 63.6562C137.49 64.6354 136.354 65.5104 135.188 66.2812C134.042 67.0312 132.885 67.6354 131.719 68.0938C130.552 68.5521 129.375 68.7812 128.188 68.7812C126.5 68.7812 125.167 68.3542 124.188 67.5C123.229 66.625 122.75 65.2708 122.75 63.4375C122.75 62.4792 122.885 61.5417 123.156 60.625C123.427 59.7083 123.75 58.8229 124.125 57.9688C124.5 57.0938 124.896 56.2604 125.312 55.4688C125.729 54.6562 126.083 53.8854 126.375 53.1562C126.479 52.8854 126.656 52.4688 126.906 51.9062C127.177 51.3438 127.458 50.7708 127.75 50.1875C128.083 49.5 128.438 48.7708 128.812 48ZM149.031 50.625C148.26 52.125 147.531 53.5938 146.844 55.0312C146.156 56.4479 145.51 57.7604 144.906 58.9688C144.656 59.4688 144.406 60.0521 144.156 60.7188C143.927 61.3646 143.812 61.9375 143.812 62.4375C143.812 62.7292 143.875 62.9583 144 63.125C144.146 63.2917 144.375 63.375 144.688 63.375C145.125 63.375 145.677 63.25 146.344 63C147.01 62.7292 147.729 62.3854 148.5 61.9688C149.271 61.5312 150.083 61.0417 150.938 60.5C151.792 59.9375 152.625 59.3646 153.438 58.7812C154.271 58.1771 155.062 57.5833 155.812 57C156.562 56.3958 157.229 55.8438 157.812 55.3438C158.146 55.1146 158.458 55 158.75 55C159.104 55 159.396 55.1562 159.625 55.4688C159.854 55.7812 159.969 56.1771 159.969 56.6562C159.969 57.1354 159.854 57.625 159.625 58.125C159.396 58.625 158.979 59.1146 158.375 59.5938C157.021 60.8229 155.646 61.9896 154.25 63.0938C152.875 64.1979 151.5 65.1771 150.125 66.0312C148.771 66.8646 147.427 67.5312 146.094 68.0312C144.76 68.5312 143.469 68.7812 142.219 68.7812C141.385 68.7812 140.688 68.6667 140.125 68.4375C139.562 68.2292 139.104 67.9375 138.75 67.5625C138.417 67.1667 138.177 66.7188 138.031 66.2188C137.885 65.6979 137.812 65.1458 137.812 64.5625C137.812 63.5208 137.99 62.4375 138.344 61.3125C138.698 60.1875 139.094 59.1771 139.531 58.2812C140.156 56.9896 140.771 55.7083 141.375 54.4375C142 53.1667 142.604 51.9479 143.188 50.7812H141.844C140.677 50.7812 139.875 50.5938 139.438 50.2188C139 49.8438 138.781 49.4167 138.781 48.9375C138.781 48.7292 138.844 48.4792 138.969 48.1875C139.115 47.875 139.312 47.5938 139.562 47.3438C139.833 47.0729 140.156 46.8438 140.531 46.6562C140.906 46.4688 141.333 46.375 141.812 46.375H145.188L151.781 33.2812C152.198 32.4896 152.708 31.9271 153.312 31.5938C153.938 31.2396 154.583 31.0625 155.25 31.0625C155.875 31.0625 156.448 31.2292 156.969 31.5625C157.49 31.8958 157.75 32.4479 157.75 33.2188C157.75 33.6146 157.656 34.0208 157.469 34.4375C157.302 34.8333 157.073 35.3021 156.781 35.8438C156.594 36.1979 156.365 36.625 156.094 37.125C155.823 37.6042 155.531 38.125 155.219 38.6875C154.927 39.2292 154.615 39.8021 154.281 40.4062C153.969 41.0104 153.656 41.5938 153.344 42.1562C152.635 43.4896 151.885 44.8958 151.094 46.375H161.281C161.781 46.375 162.24 46.4062 162.656 46.4688C163.073 46.5104 163.427 46.6146 163.719 46.7812C164.031 46.9271 164.271 47.1354 164.438 47.4062C164.604 47.6771 164.688 48.0417 164.688 48.5C164.688 48.7292 164.646 48.9583 164.562 49.1875C164.5 49.4167 164.365 49.625 164.156 49.8125C163.969 50 163.698 50.1562 163.344 50.2812C163.01 50.4062 162.573 50.4896 162.031 50.5312L149.031 50.625ZM168.188 50.7812C167.208 50.7812 166.26 51.0312 165.344 51.5312C164.448 52.0104 163.646 52.6562 162.938 53.4688C162.25 54.2604 161.698 55.1667 161.281 56.1875C160.865 57.1875 160.656 58.2188 160.656 59.2812C160.656 59.6771 160.688 60.1146 160.75 60.5938C160.812 61.0521 160.938 61.4896 161.125 61.9062C161.333 62.3021 161.625 62.6354 162 62.9062C162.375 63.1771 162.875 63.3125 163.5 63.3125C164.458 63.3125 165.385 63.0625 166.281 62.5625C167.198 62.0417 168.01 61.375 168.719 60.5625C169.427 59.7292 169.99 58.7917 170.406 57.75C170.823 56.7083 171.031 55.6562 171.031 54.5938C171.031 54.1771 171 53.75 170.938 53.3125C170.896 52.8542 170.771 52.4375 170.562 52.0625C170.375 51.6875 170.094 51.3854 169.719 51.1562C169.344 50.9062 168.833 50.7812 168.188 50.7812ZM169.812 45.2812C170.604 45.2812 171.448 45.3854 172.344 45.5938C173.26 45.8021 174.104 46.1562 174.875 46.6562C175.646 47.1562 176.281 47.8229 176.781 48.6562C177.302 49.4688 177.562 50.4792 177.562 51.6875C177.562 52.3125 177.479 53.0312 177.312 53.8438C177.146 54.6354 176.896 55.4688 176.562 56.3438C176.771 56.5938 177.01 56.7708 177.281 56.875C177.552 56.9792 177.844 57.0312 178.156 57.0312C178.594 57.0312 179.073 56.9062 179.594 56.6562C180.135 56.4062 180.688 56.0833 181.25 55.6875C181.812 55.2917 182.375 54.8438 182.938 54.3438C183.5 53.8438 184.031 53.3438 184.531 52.8438C185.031 52.3438 185.479 51.875 185.875 51.4375C186.292 50.9792 186.635 50.5938 186.906 50.2812C187.052 50.1354 187.229 50.0625 187.438 50.0625C187.729 50.0625 187.99 50.2188 188.219 50.5312C188.448 50.8229 188.562 51.2396 188.562 51.7812C188.562 52.3229 188.396 52.9479 188.062 53.6562C187.75 54.3646 187.156 55.1042 186.281 55.875C185.781 56.4167 185.208 57.0417 184.562 57.75C183.917 58.4583 183.229 59.125 182.5 59.75C181.771 60.375 181.01 60.9062 180.219 61.3438C179.427 61.7812 178.635 62 177.844 62C177.302 62 176.771 61.9167 176.25 61.75C175.75 61.5833 175.24 61.3125 174.719 60.9375C173.969 62.1042 173.115 63.1667 172.156 64.125C171.198 65.0833 170.125 65.9062 168.938 66.5938C167.771 67.2812 166.5 67.8125 165.125 68.1875C163.771 68.5833 162.323 68.7812 160.781 68.7812C160.198 68.7812 159.521 68.6667 158.75 68.4375C157.979 68.2083 157.24 67.8333 156.531 67.3125C155.844 66.7708 155.26 66.0729 154.781 65.2188C154.302 64.3646 154.062 63.3229 154.062 62.0938C154.062 61.2604 154.198 60.2604 154.469 59.0938C154.74 57.9271 155.146 56.7292 155.688 55.5C156.25 54.25 156.948 53.0208 157.781 51.8125C158.635 50.5833 159.646 49.4896 160.812 48.5312C161.979 47.5521 163.312 46.7708 164.812 46.1875C166.312 45.5833 167.979 45.2812 169.812 45.2812Z" fill="#FF0000"/>
<path d="M46.4062 62.7812C46.5938 60.9896 46.8229 58.9167 47.0938 56.5625C47.3646 54.2083 47.6562 51.75 47.9688 49.1875C48.2812 46.6042 48.5938 44.0104 48.9062 41.4062C49.2396 38.8021 49.5625 36.3646 49.875 34.0938C48.7708 36.2188 47.6562 38.3542 46.5312 40.5C45.4062 42.6458 44.3333 44.6875 43.3125 46.625C42.3125 48.5417 41.3854 50.2812 40.5312 51.8438C39.6979 53.4062 39.0208 54.6667 38.5 55.625C38.0208 56.2708 37.5417 56.8854 37.0625 57.4688C36.5833 58.0521 36.1042 58.5625 35.625 59C35.1667 59.4375 34.7083 59.7917 34.25 60.0625C33.7917 60.3125 33.3438 60.4375 32.9062 60.4375C32.3229 60.4375 31.8542 60.3125 31.5 60.0625C31.1667 59.8125 31 59.4375 31 58.9375C31 58.8333 31 58.7396 31 58.6562C31.0208 58.5521 31.0521 58.4479 31.0938 58.3438C30.9688 55.3854 30.875 52.4062 30.8125 49.4062C30.75 46.3854 30.7188 43.4167 30.7188 40.5C30.7188 39.8125 30.7188 39.125 30.7188 38.4375C30.7188 37.75 30.7292 37.0729 30.75 36.4062C29.9167 38.2812 29.0104 40.2292 28.0312 42.25C27.0521 44.2708 26.0312 46.2708 24.9688 48.25C23.9062 50.2083 22.8125 52.1042 21.6875 53.9375C20.5625 55.75 19.4375 57.4062 18.3125 58.9062C17.1875 60.3854 16.0729 61.6562 14.9688 62.7188C13.8854 63.7604 12.8438 64.4896 11.8438 64.9062C10.9688 65.2604 10.2083 65.5104 9.5625 65.6562C8.91667 65.8229 8.34375 65.9062 7.84375 65.9062C7.09375 65.9062 6.53125 65.75 6.15625 65.4375C5.80208 65.1458 5.625 64.7812 5.625 64.3438C5.625 63.8229 5.84375 63.2812 6.28125 62.7188C6.71875 62.1562 7.33333 61.7188 8.125 61.4062C9.08333 61.0312 10.125 60.2083 11.25 58.9375C12.3958 57.6458 13.5729 56.0833 14.7812 54.25C15.9896 52.4167 17.2083 50.375 18.4375 48.125C19.6667 45.875 20.8542 43.5938 22 41.2812C23.1667 38.9688 24.2604 36.7083 25.2812 34.5C26.3021 32.2708 27.2083 30.2604 28 28.4688C28.7917 26.6771 29.4375 25.1875 29.9375 24C30.4583 22.7917 30.7812 22.0417 30.9062 21.75C31.1979 21.1042 31.6042 20.6354 32.125 20.3438C32.6458 20.0521 33.1771 19.9062 33.7188 19.9062C34.4688 19.9062 34.9896 20.1146 35.2812 20.5312C35.5729 20.9271 35.7188 21.6458 35.7188 22.6875C35.8854 24 36.0208 25.2396 36.125 26.4062C36.25 27.5521 36.3542 28.7396 36.4375 29.9688C36.5208 31.1771 36.5729 32.4896 36.5938 33.9062C36.6354 35.3021 36.6562 36.9167 36.6562 38.75C36.6562 40.0625 36.625 41.5104 36.5625 43.0938C36.5208 44.6771 36.5 46.4479 36.5 48.4062C39 43.8646 41.2083 39.8646 43.125 36.4062C45.0625 32.9271 46.7396 30.0208 48.1562 27.6875C49.5938 25.3333 50.8021 23.5625 51.7812 22.375C52.7604 21.1667 53.5417 20.5625 54.125 20.5625H54.3438C54.4062 20.5625 54.4688 20.5625 54.5312 20.5625C54.5938 20.5417 54.6562 20.5312 54.7188 20.5312C55.2188 20.5312 55.6146 20.8438 55.9062 21.4688C56.1979 22.0938 56.3438 22.9062 56.3438 23.9062C56.2604 24.9271 56.1354 26.1979 55.9688 27.7188C55.8021 29.2396 55.6042 30.9167 55.375 32.75C55.1667 34.5625 54.9375 36.4792 54.6875 38.5C54.4375 40.5208 54.1875 42.5312 53.9375 44.5312C53.6875 46.5104 53.4479 48.4375 53.2188 50.3125C53.0104 52.1875 52.8333 53.8854 52.6875 55.4062C52.6458 55.6771 52.625 55.9583 52.625 56.25C52.625 56.5208 52.625 56.8021 52.625 57.0938C52.625 57.6354 52.6354 58.1875 52.6562 58.75C52.6771 59.2917 52.6875 59.8333 52.6875 60.375C52.6875 61 52.6562 61.6354 52.5938 62.2812C52.5312 62.9062 52.3542 63.4792 52.0625 64C51.7917 64.5 51.3542 64.9062 50.75 65.2188C50.1458 65.5521 49.3125 65.7188 48.25 65.7188C47.6875 65.7188 47.2396 65.5 46.9062 65.0625C46.5729 64.6458 46.4062 63.8854 46.4062 62.7812ZM72.5625 47.9375C71.5833 47.9375 70.6354 48.1875 69.7188 48.6875C68.8021 49.1875 67.9896 49.8438 67.2812 50.6562C66.5729 51.4688 66.0104 52.3854 65.5938 53.4062C65.1771 54.4062 64.9688 55.4167 64.9688 56.4375C64.9688 56.8542 64.9896 57.2917 65.0312 57.75C65.0938 58.1875 65.2188 58.5938 65.4062 58.9688C65.5938 59.3438 65.8542 59.6562 66.1875 59.9062C66.5417 60.1562 67.0104 60.2812 67.5938 60.2812C68.0521 60.2812 68.5833 60.0833 69.1875 59.6875C69.8125 59.2708 70.4479 58.75 71.0938 58.125C71.7604 57.4792 72.4062 56.7812 73.0312 56.0312C73.6562 55.2604 74.2188 54.5104 74.7188 53.7812C75.2188 53.0521 75.625 52.3958 75.9375 51.8125C76.25 51.2292 76.4062 50.8021 76.4062 50.5312C76.4062 50.1354 76.2708 49.7812 76 49.4688C75.7292 49.1354 75.3958 48.8542 75 48.625C74.6042 48.3958 74.1771 48.2292 73.7188 48.125C73.2812 48 72.8958 47.9375 72.5625 47.9375ZM94.2188 56C93.8438 56.3542 93.3438 56.8438 92.7188 57.4688C92.0938 58.0938 91.375 58.7708 90.5625 59.5C89.7708 60.2292 88.9167 60.9688 88 61.7188C87.1042 62.4479 86.1771 63.1146 85.2188 63.7188C84.2812 64.3229 83.3542 64.8125 82.4375 65.1875C81.5208 65.5833 80.6562 65.7812 79.8438 65.7812C79.1146 65.7812 78.4896 65.625 77.9688 65.3125C77.4479 65 77.0104 64.5938 76.6562 64.0938C76.3229 63.5938 76.0729 63.0312 75.9062 62.4062C75.7396 61.7604 75.6562 61.1042 75.6562 60.4375C75.6562 60 75.6875 59.5729 75.75 59.1562C75.8125 58.7188 75.9167 58.3125 76.0625 57.9375C75.4167 58.8125 74.6771 59.7188 73.8438 60.6562C73.0312 61.5729 72.1458 62.4167 71.1875 63.1875C70.25 63.9375 69.2604 64.5521 68.2188 65.0312C67.1979 65.5312 66.1562 65.7812 65.0938 65.7812C64.5521 65.7812 63.9167 65.6667 63.1875 65.4375C62.4792 65.2292 61.8021 64.875 61.1562 64.375C60.5104 63.875 59.9688 63.2292 59.5312 62.4375C59.0938 61.6458 58.875 60.6771 58.875 59.5312C58.875 58.6771 59 57.6562 59.25 56.4688C59.5208 55.2812 59.9167 54.0521 60.4375 52.7812C60.9792 51.4896 61.6562 50.2188 62.4688 48.9688C63.3021 47.7188 64.2812 46.6042 65.4062 45.625C66.5312 44.625 67.8125 43.8229 69.25 43.2188C70.6875 42.5938 72.2917 42.2812 74.0625 42.2812C74.9792 42.2812 75.7812 42.3958 76.4688 42.625C77.1562 42.8542 77.7396 43.1042 78.2188 43.375C78.7604 43.7083 79.2396 44.0729 79.6562 44.4688C80.0104 44.2812 80.375 44.1042 80.75 43.9375C81.0625 43.7917 81.3854 43.6667 81.7188 43.5625C82.0729 43.4375 82.375 43.375 82.625 43.375C83.4167 43.375 84.0625 43.5938 84.5625 44.0312C85.0625 44.4688 85.3125 44.9479 85.3125 45.4688C85.3125 45.6146 85.3021 45.7292 85.2812 45.8125C85.1771 46.2083 85.0104 46.7083 84.7812 47.3125C84.5729 47.9167 84.3333 48.5938 84.0625 49.3438C83.7917 50.0729 83.5104 50.8438 83.2188 51.6562C82.9479 52.4479 82.6979 53.2292 82.4688 54C82.2396 54.7708 82.0521 55.5 81.9062 56.1875C81.7604 56.8542 81.6875 57.4271 81.6875 57.9062C81.6875 58.5312 81.7917 59.0521 82 59.4688C82.2083 59.8646 82.5625 60.0625 83.0625 60.0625C83.375 60.0625 83.7396 59.9688 84.1562 59.7812C84.5938 59.5729 85.0625 59.3021 85.5625 58.9688C86.0625 58.6354 86.5729 58.2604 87.0938 57.8438C87.6354 57.4062 88.1562 56.9688 88.6562 56.5312C89.8229 55.4896 91.0625 54.3021 92.375 52.9688C92.7083 52.6979 93.0312 52.5625 93.3438 52.5625C93.7604 52.5625 94.1042 52.7708 94.375 53.1875C94.6667 53.5833 94.8125 54.0312 94.8125 54.5312C94.8125 55.1146 94.6146 55.6042 94.2188 56ZM95.9688 46.0312C96.3854 45.1354 96.9062 44.4688 97.5312 44.0312C98.1562 43.5938 98.7708 43.375 99.375 43.375C99.875 43.375 100.323 43.5625 100.719 43.9375C101.115 44.2917 101.312 44.8229 101.312 45.5312C101.312 45.8021 101.281 46.0938 101.219 46.4062C101.156 46.7188 101.042 47.0521 100.875 47.4062C101.333 46.8229 101.99 46.2292 102.844 45.625C103.698 45 104.635 44.4479 105.656 43.9688C106.698 43.4688 107.76 43.0625 108.844 42.75C109.948 42.4375 110.99 42.2812 111.969 42.2812C113.073 42.2812 113.99 42.5521 114.719 43.0938C115.469 43.6146 115.844 44.5104 115.844 45.7812C115.844 46.5312 115.729 47.3125 115.5 48.125C115.271 48.9375 114.969 49.75 114.594 50.5625C114.24 51.375 113.833 52.1771 113.375 52.9688C112.938 53.7396 112.5 54.4688 112.062 55.1562C111.625 55.8438 111.219 56.4792 110.844 57.0625C110.49 57.625 110.208 58.0938 110 58.4688C109.729 58.8021 109.594 59.1875 109.594 59.625C109.594 59.7917 109.646 59.9375 109.75 60.0625C109.854 60.1875 110.021 60.25 110.25 60.25C110.396 60.25 110.562 60.2396 110.75 60.2188C110.938 60.1771 111.167 60.0625 111.438 59.875C112.562 59.4583 113.708 58.9375 114.875 58.3125C116.062 57.6875 117.198 57.0312 118.281 56.3438C119.365 55.6354 120.354 54.9375 121.25 54.25C122.167 53.5417 122.927 52.9062 123.531 52.3438C123.698 52.1979 123.865 52.0938 124.031 52.0312C124.198 51.9688 124.354 51.9375 124.5 51.9375C124.854 51.9375 125.125 52.0729 125.312 52.3438C125.521 52.6146 125.625 52.9583 125.625 53.375C125.625 54.0208 125.417 54.7396 125 55.5312C124.604 56.3229 123.969 57.0625 123.094 57.75C121.906 58.6042 120.812 59.3854 119.812 60.0938C118.833 60.8021 117.823 61.4688 116.781 62.0938C115.76 62.6979 114.656 63.2708 113.469 63.8125C112.302 64.3333 110.927 64.8229 109.344 65.2812C108.802 65.4479 108.302 65.5729 107.844 65.6562C107.406 65.7396 107 65.7812 106.625 65.7812C105.521 65.7812 104.708 65.4792 104.188 64.875C103.688 64.25 103.438 63.3854 103.438 62.2812C103.438 62.1354 103.438 62 103.438 61.875C103.458 61.7292 103.479 61.5729 103.5 61.4062C103.542 60.7604 103.708 60.0521 104 59.2812C104.312 58.5104 104.677 57.7188 105.094 56.9062C105.531 56.0938 105.99 55.2917 106.469 54.5C106.948 53.6875 107.385 52.9271 107.781 52.2188C108.198 51.4896 108.542 50.8438 108.812 50.2812C109.083 49.7188 109.219 49.2604 109.219 48.9062C109.219 48.5938 109.125 48.3333 108.938 48.125C108.771 47.8958 108.51 47.7812 108.156 47.7812C106.823 47.7812 105.552 48.1771 104.344 48.9688C103.156 49.7604 102.042 50.7396 101 51.9062C99.9583 53.0521 99 54.2708 98.125 55.5625C97.25 56.8542 96.4792 58.0104 95.8125 59.0312C95.3958 59.7188 95.0104 60.4583 94.6562 61.25C94.3229 62.0208 93.9688 62.75 93.5938 63.4375C93.2188 64.1042 92.7917 64.6562 92.3125 65.0938C91.8542 65.5521 91.2708 65.7812 90.5625 65.7812C89.8333 65.7812 89.2604 65.5521 88.8438 65.0938C88.4271 64.6354 88.2188 64.0729 88.2188 63.4062C88.2188 63.0521 88.3646 62.4792 88.6562 61.6875C88.9479 60.8958 89.3229 59.9792 89.7812 58.9375C90.2396 57.8958 90.75 56.7812 91.3125 55.5938C91.8958 54.3854 92.4688 53.1979 93.0312 52.0312C93.6146 50.8438 94.1667 49.7292 94.6875 48.6875C95.2083 47.6458 95.6354 46.7604 95.9688 46.0312ZM128.25 37.9688C128.25 37.4896 128.333 37 128.5 36.5C128.688 35.9792 128.958 35.5104 129.312 35.0938C129.667 34.6771 130.104 34.3333 130.625 34.0625C131.167 33.7917 131.802 33.6562 132.531 33.6562C133.74 33.6562 134.583 33.8958 135.062 34.375C135.542 34.8333 135.781 35.4167 135.781 36.125C135.781 36.5208 135.698 36.9583 135.531 37.4375C135.385 37.9167 135.156 38.3646 134.844 38.7812C134.531 39.1771 134.125 39.5104 133.625 39.7812C133.125 40.0521 132.531 40.1875 131.844 40.1875C130.552 40.1875 129.646 39.9896 129.125 39.5938C128.604 39.1771 128.312 38.6354 128.25 37.9688ZM124.812 45C125.167 44.4167 125.573 44 126.031 43.75C126.49 43.5 126.958 43.375 127.438 43.375C128.229 43.375 128.906 43.6354 129.469 44.1562C130.052 44.6562 130.344 45.3021 130.344 46.0938C130.323 46.2812 130.292 46.4688 130.25 46.6562C130.229 46.8438 130.167 47.0312 130.062 47.2188C129.771 47.7604 129.531 48.2188 129.344 48.5938C129.156 48.9688 128.979 49.3229 128.812 49.6562C128.667 49.9688 128.521 50.2812 128.375 50.5938C128.229 50.9062 128.052 51.2812 127.844 51.7188C127.594 52.2396 127.312 52.8125 127 53.4375C126.688 54.0417 126.385 54.6667 126.094 55.3125C125.823 55.9583 125.583 56.5938 125.375 57.2188C125.188 57.8438 125.094 58.4167 125.094 58.9375C125.094 59.5 125.229 59.875 125.5 60.0625C125.792 60.2292 126.198 60.3125 126.719 60.3125C127.302 60.3125 127.906 60.1875 128.531 59.9375C129.177 59.6875 129.823 59.3646 130.469 58.9688C131.115 58.5729 131.75 58.125 132.375 57.625C133 57.1042 133.583 56.5833 134.125 56.0625C134.688 55.5417 135.198 55.0417 135.656 54.5625C136.135 54.0833 136.531 53.6562 136.844 53.2812C137.26 52.8854 137.677 52.6875 138.094 52.6875C138.469 52.6875 138.771 52.8542 139 53.1875C139.25 53.5208 139.375 53.9479 139.375 54.4688C139.375 54.9479 139.25 55.4583 139 56C138.771 56.5417 138.385 57.0521 137.844 57.5312C136.781 58.6146 135.698 59.6562 134.594 60.6562C133.49 61.6354 132.354 62.5104 131.188 63.2812C130.042 64.0312 128.885 64.6354 127.719 65.0938C126.552 65.5521 125.375 65.7812 124.188 65.7812C122.5 65.7812 121.167 65.3542 120.188 64.5C119.229 63.625 118.75 62.2708 118.75 60.4375C118.75 59.4792 118.885 58.5417 119.156 57.625C119.427 56.7083 119.75 55.8229 120.125 54.9688C120.5 54.0938 120.896 53.2604 121.312 52.4688C121.729 51.6562 122.083 50.8854 122.375 50.1562C122.479 49.8854 122.656 49.4688 122.906 48.9062C123.177 48.3438 123.458 47.7708 123.75 47.1875C124.083 46.5 124.438 45.7708 124.812 45ZM145.031 47.625C144.26 49.125 143.531 50.5938 142.844 52.0312C142.156 53.4479 141.51 54.7604 140.906 55.9688C140.656 56.4688 140.406 57.0521 140.156 57.7188C139.927 58.3646 139.812 58.9375 139.812 59.4375C139.812 59.7292 139.875 59.9583 140 60.125C140.146 60.2917 140.375 60.375 140.688 60.375C141.125 60.375 141.677 60.25 142.344 60C143.01 59.7292 143.729 59.3854 144.5 58.9688C145.271 58.5312 146.083 58.0417 146.938 57.5C147.792 56.9375 148.625 56.3646 149.438 55.7812C150.271 55.1771 151.062 54.5833 151.812 54C152.562 53.3958 153.229 52.8438 153.812 52.3438C154.146 52.1146 154.458 52 154.75 52C155.104 52 155.396 52.1562 155.625 52.4688C155.854 52.7812 155.969 53.1771 155.969 53.6562C155.969 54.1354 155.854 54.625 155.625 55.125C155.396 55.625 154.979 56.1146 154.375 56.5938C153.021 57.8229 151.646 58.9896 150.25 60.0938C148.875 61.1979 147.5 62.1771 146.125 63.0312C144.771 63.8646 143.427 64.5312 142.094 65.0312C140.76 65.5312 139.469 65.7812 138.219 65.7812C137.385 65.7812 136.688 65.6667 136.125 65.4375C135.562 65.2292 135.104 64.9375 134.75 64.5625C134.417 64.1667 134.177 63.7188 134.031 63.2188C133.885 62.6979 133.812 62.1458 133.812 61.5625C133.812 60.5208 133.99 59.4375 134.344 58.3125C134.698 57.1875 135.094 56.1771 135.531 55.2812C136.156 53.9896 136.771 52.7083 137.375 51.4375C138 50.1667 138.604 48.9479 139.188 47.7812H137.844C136.677 47.7812 135.875 47.5938 135.438 47.2188C135 46.8438 134.781 46.4167 134.781 45.9375C134.781 45.7292 134.844 45.4792 134.969 45.1875C135.115 44.875 135.312 44.5938 135.562 44.3438C135.833 44.0729 136.156 43.8438 136.531 43.6562C136.906 43.4688 137.333 43.375 137.812 43.375H141.188L147.781 30.2812C148.198 29.4896 148.708 28.9271 149.312 28.5938C149.938 28.2396 150.583 28.0625 151.25 28.0625C151.875 28.0625 152.448 28.2292 152.969 28.5625C153.49 28.8958 153.75 29.4479 153.75 30.2188C153.75 30.6146 153.656 31.0208 153.469 31.4375C153.302 31.8333 153.073 32.3021 152.781 32.8438C152.594 33.1979 152.365 33.625 152.094 34.125C151.823 34.6042 151.531 35.125 151.219 35.6875C150.927 36.2292 150.615 36.8021 150.281 37.4062C149.969 38.0104 149.656 38.5938 149.344 39.1562C148.635 40.4896 147.885 41.8958 147.094 43.375H157.281C157.781 43.375 158.24 43.4062 158.656 43.4688C159.073 43.5104 159.427 43.6146 159.719 43.7812C160.031 43.9271 160.271 44.1354 160.438 44.4062C160.604 44.6771 160.688 45.0417 160.688 45.5C160.688 45.7292 160.646 45.9583 160.562 46.1875C160.5 46.4167 160.365 46.625 160.156 46.8125C159.969 47 159.698 47.1562 159.344 47.2812C159.01 47.4062 158.573 47.4896 158.031 47.5312L145.031 47.625ZM164.188 47.7812C163.208 47.7812 162.26 48.0312 161.344 48.5312C160.448 49.0104 159.646 49.6562 158.938 50.4688C158.25 51.2604 157.698 52.1667 157.281 53.1875C156.865 54.1875 156.656 55.2188 156.656 56.2812C156.656 56.6771 156.688 57.1146 156.75 57.5938C156.812 58.0521 156.938 58.4896 157.125 58.9062C157.333 59.3021 157.625 59.6354 158 59.9062C158.375 60.1771 158.875 60.3125 159.5 60.3125C160.458 60.3125 161.385 60.0625 162.281 59.5625C163.198 59.0417 164.01 58.375 164.719 57.5625C165.427 56.7292 165.99 55.7917 166.406 54.75C166.823 53.7083 167.031 52.6562 167.031 51.5938C167.031 51.1771 167 50.75 166.938 50.3125C166.896 49.8542 166.771 49.4375 166.562 49.0625C166.375 48.6875 166.094 48.3854 165.719 48.1562C165.344 47.9062 164.833 47.7812 164.188 47.7812ZM165.812 42.2812C166.604 42.2812 167.448 42.3854 168.344 42.5938C169.26 42.8021 170.104 43.1562 170.875 43.6562C171.646 44.1562 172.281 44.8229 172.781 45.6562C173.302 46.4688 173.562 47.4792 173.562 48.6875C173.562 49.3125 173.479 50.0312 173.312 50.8438C173.146 51.6354 172.896 52.4688 172.562 53.3438C172.771 53.5938 173.01 53.7708 173.281 53.875C173.552 53.9792 173.844 54.0312 174.156 54.0312C174.594 54.0312 175.073 53.9062 175.594 53.6562C176.135 53.4062 176.688 53.0833 177.25 52.6875C177.812 52.2917 178.375 51.8438 178.938 51.3438C179.5 50.8438 180.031 50.3438 180.531 49.8438C181.031 49.3438 181.479 48.875 181.875 48.4375C182.292 47.9792 182.635 47.5938 182.906 47.2812C183.052 47.1354 183.229 47.0625 183.438 47.0625C183.729 47.0625 183.99 47.2188 184.219 47.5312C184.448 47.8229 184.562 48.2396 184.562 48.7812C184.562 49.3229 184.396 49.9479 184.062 50.6562C183.75 51.3646 183.156 52.1042 182.281 52.875C181.781 53.4167 181.208 54.0417 180.562 54.75C179.917 55.4583 179.229 56.125 178.5 56.75C177.771 57.375 177.01 57.9062 176.219 58.3438C175.427 58.7812 174.635 59 173.844 59C173.302 59 172.771 58.9167 172.25 58.75C171.75 58.5833 171.24 58.3125 170.719 57.9375C169.969 59.1042 169.115 60.1667 168.156 61.125C167.198 62.0833 166.125 62.9062 164.938 63.5938C163.771 64.2812 162.5 64.8125 161.125 65.1875C159.771 65.5833 158.323 65.7812 156.781 65.7812C156.198 65.7812 155.521 65.6667 154.75 65.4375C153.979 65.2083 153.24 64.8333 152.531 64.3125C151.844 63.7708 151.26 63.0729 150.781 62.2188C150.302 61.3646 150.062 60.3229 150.062 59.0938C150.062 58.2604 150.198 57.2604 150.469 56.0938C150.74 54.9271 151.146 53.7292 151.688 52.5C152.25 51.25 152.948 50.0208 153.781 48.8125C154.635 47.5833 155.646 46.4896 156.812 45.5312C157.979 44.5521 159.312 43.7708 160.812 43.1875C162.312 42.5833 163.979 42.2812 165.812 42.2812Z" fill="white"/>
</svg>
