<svg width="275" height="92" viewBox="0 0 275 92" fill="none" xmlns="http://www.w3.org/2000/svg">
<path d="M49.4062 66.7812C49.5938 64.9896 49.8229 62.9167 50.0938 60.5625C50.3646 58.2083 50.6562 55.75 50.9688 53.1875C51.2812 50.6042 51.5938 48.0104 51.9062 45.4062C52.2396 42.8021 52.5625 40.3646 52.875 38.0938C51.7708 40.2188 50.6562 42.3542 49.5312 44.5C48.4062 46.6458 47.3333 48.6875 46.3125 50.625C45.3125 52.5417 44.3854 54.2812 43.5312 55.8438C42.6979 57.4062 42.0208 58.6667 41.5 59.625C41.0208 60.2708 40.5417 60.8854 40.0625 61.4688C39.5833 62.0521 39.1042 62.5625 38.625 63C38.1667 63.4375 37.7083 63.7917 37.25 64.0625C36.7917 64.3125 36.3438 64.4375 35.9062 64.4375C35.3229 64.4375 34.8542 64.3125 34.5 64.0625C34.1667 63.8125 34 63.4375 34 62.9375C34 62.8333 34 62.7396 34 62.6562C34.0208 62.5521 34.0521 62.4479 34.0938 62.3438C33.9688 59.3854 33.875 56.4062 33.8125 53.4062C33.75 50.3854 33.7188 47.4167 33.7188 44.5C33.7188 43.8125 33.7188 43.125 33.7188 42.4375C33.7188 41.75 33.7292 41.0729 33.75 40.4062C32.9167 42.2812 32.0104 44.2292 31.0312 46.25C30.0521 48.2708 29.0312 50.2708 27.9688 52.25C26.9062 54.2083 25.8125 56.1042 24.6875 57.9375C23.5625 59.75 22.4375 61.4062 21.3125 62.9062C20.1875 64.3854 19.0729 65.6562 17.9688 66.7188C16.8854 67.7604 15.8438 68.4896 14.8438 68.9062C13.9688 69.2604 13.2083 69.5104 12.5625 69.6562C11.9167 69.8229 11.3438 69.9062 10.8438 69.9062C10.0938 69.9062 9.53125 69.75 9.15625 69.4375C8.80208 69.1458 8.625 68.7812 8.625 68.3438C8.625 67.8229 8.84375 67.2812 9.28125 66.7188C9.71875 66.1562 10.3333 65.7188 11.125 65.4062C12.0833 65.0312 13.125 64.2083 14.25 62.9375C15.3958 61.6458 16.5729 60.0833 17.7812 58.25C18.9896 56.4167 20.2083 54.375 21.4375 52.125C22.6667 49.875 23.8542 47.5938 25 45.2812C26.1667 42.9688 27.2604 40.7083 28.2812 38.5C29.3021 36.2708 30.2083 34.2604 31 32.4688C31.7917 30.6771 32.4375 29.1875 32.9375 28C33.4583 26.7917 33.7812 26.0417 33.9062 25.75C34.1979 25.1042 34.6042 24.6354 35.125 24.3438C35.6458 24.0521 36.1771 23.9062 36.7188 23.9062C37.4688 23.9062 37.9896 24.1146 38.2812 24.5312C38.5729 24.9271 38.7188 25.6458 38.7188 26.6875C38.8854 28 39.0208 29.2396 39.125 30.4062C39.25 31.5521 39.3542 32.7396 39.4375 33.9688C39.5208 35.1771 39.5729 36.4896 39.5938 37.9062C39.6354 39.3021 39.6562 40.9167 39.6562 42.75C39.6562 44.0625 39.625 45.5104 39.5625 47.0938C39.5208 48.6771 39.5 50.4479 39.5 52.4062C42 47.8646 44.2083 43.8646 46.125 40.4062C48.0625 36.9271 49.7396 34.0208 51.1562 31.6875C52.5938 29.3333 53.8021 27.5625 54.7812 26.375C55.7604 25.1667 56.5417 24.5625 57.125 24.5625H57.3438C57.4062 24.5625 57.4688 24.5625 57.5312 24.5625C57.5938 24.5417 57.6562 24.5312 57.7188 24.5312C58.2188 24.5312 58.6146 24.8438 58.9062 25.4688C59.1979 26.0938 59.3438 26.9062 59.3438 27.9062C59.2604 28.9271 59.1354 30.1979 58.9688 31.7188C58.8021 33.2396 58.6042 34.9167 58.375 36.75C58.1667 38.5625 57.9375 40.4792 57.6875 42.5C57.4375 44.5208 57.1875 46.5312 56.9375 48.5312C56.6875 50.5104 56.4479 52.4375 56.2188 54.3125C56.0104 56.1875 55.8333 57.8854 55.6875 59.4062C55.6458 59.6771 55.625 59.9583 55.625 60.25C55.625 60.5208 55.625 60.8021 55.625 61.0938C55.625 61.6354 55.6354 62.1875 55.6562 62.75C55.6771 63.2917 55.6875 63.8333 55.6875 64.375C55.6875 65 55.6562 65.6354 55.5938 66.2812C55.5312 66.9062 55.3542 67.4792 55.0625 68C54.7917 68.5 54.3542 68.9062 53.75 69.2188C53.1458 69.5521 52.3125 69.7188 51.25 69.7188C50.6875 69.7188 50.2396 69.5 49.9062 69.0625C49.5729 68.6458 49.4062 67.8854 49.4062 66.7812ZM75.5625 51.9375C74.5833 51.9375 73.6354 52.1875 72.7188 52.6875C71.8021 53.1875 70.9896 53.8438 70.2812 54.6562C69.5729 55.4688 69.0104 56.3854 68.5938 57.4062C68.1771 58.4062 67.9688 59.4167 67.9688 60.4375C67.9688 60.8542 67.9896 61.2917 68.0312 61.75C68.0938 62.1875 68.2188 62.5938 68.4062 62.9688C68.5938 63.3438 68.8542 63.6562 69.1875 63.9062C69.5417 64.1562 70.0104 64.2812 70.5938 64.2812C71.0521 64.2812 71.5833 64.0833 72.1875 63.6875C72.8125 63.2708 73.4479 62.75 74.0938 62.125C74.7604 61.4792 75.4062 60.7812 76.0312 60.0312C76.6562 59.2604 77.2188 58.5104 77.7188 57.7812C78.2188 57.0521 78.625 56.3958 78.9375 55.8125C79.25 55.2292 79.4062 54.8021 79.4062 54.5312C79.4062 54.1354 79.2708 53.7812 79 53.4688C78.7292 53.1354 78.3958 52.8542 78 52.625C77.6042 52.3958 77.1771 52.2292 76.7188 52.125C76.2812 52 75.8958 51.9375 75.5625 51.9375ZM97.2188 60C96.8438 60.3542 96.3438 60.8438 95.7188 61.4688C95.0938 62.0938 94.375 62.7708 93.5625 63.5C92.7708 64.2292 91.9167 64.9688 91 65.7188C90.1042 66.4479 89.1771 67.1146 88.2188 67.7188C87.2812 68.3229 86.3542 68.8125 85.4375 69.1875C84.5208 69.5833 83.6562 69.7812 82.8438 69.7812C82.1146 69.7812 81.4896 69.625 80.9688 69.3125C80.4479 69 80.0104 68.5938 79.6562 68.0938C79.3229 67.5938 79.0729 67.0312 78.9062 66.4062C78.7396 65.7604 78.6562 65.1042 78.6562 64.4375C78.6562 64 78.6875 63.5729 78.75 63.1562C78.8125 62.7188 78.9167 62.3125 79.0625 61.9375C78.4167 62.8125 77.6771 63.7188 76.8438 64.6562C76.0312 65.5729 75.1458 66.4167 74.1875 67.1875C73.25 67.9375 72.2604 68.5521 71.2188 69.0312C70.1979 69.5312 69.1562 69.7812 68.0938 69.7812C67.5521 69.7812 66.9167 69.6667 66.1875 69.4375C65.4792 69.2292 64.8021 68.875 64.1562 68.375C63.5104 67.875 62.9688 67.2292 62.5312 66.4375C62.0938 65.6458 61.875 64.6771 61.875 63.5312C61.875 62.6771 62 61.6562 62.25 60.4688C62.5208 59.2812 62.9167 58.0521 63.4375 56.7812C63.9792 55.4896 64.6562 54.2188 65.4688 52.9688C66.3021 51.7188 67.2812 50.6042 68.4062 49.625C69.5312 48.625 70.8125 47.8229 72.25 47.2188C73.6875 46.5938 75.2917 46.2812 77.0625 46.2812C77.9792 46.2812 78.7812 46.3958 79.4688 46.625C80.1562 46.8542 80.7396 47.1042 81.2188 47.375C81.7604 47.7083 82.2396 48.0729 82.6562 48.4688C83.0104 48.2812 83.375 48.1042 83.75 47.9375C84.0625 47.7917 84.3854 47.6667 84.7188 47.5625C85.0729 47.4375 85.375 47.375 85.625 47.375C86.4167 47.375 87.0625 47.5938 87.5625 48.0312C88.0625 48.4688 88.3125 48.9479 88.3125 49.4688C88.3125 49.6146 88.3021 49.7292 88.2812 49.8125C88.1771 50.2083 88.0104 50.7083 87.7812 51.3125C87.5729 51.9167 87.3333 52.5938 87.0625 53.3438C86.7917 54.0729 86.5104 54.8438 86.2188 55.6562C85.9479 56.4479 85.6979 57.2292 85.4688 58C85.2396 58.7708 85.0521 59.5 84.9062 60.1875C84.7604 60.8542 84.6875 61.4271 84.6875 61.9062C84.6875 62.5312 84.7917 63.0521 85 63.4688C85.2083 63.8646 85.5625 64.0625 86.0625 64.0625C86.375 64.0625 86.7396 63.9688 87.1562 63.7812C87.5938 63.5729 88.0625 63.3021 88.5625 62.9688C89.0625 62.6354 89.5729 62.2604 90.0938 61.8438C90.6354 61.4062 91.1562 60.9688 91.6562 60.5312C92.8229 59.4896 94.0625 58.3021 95.375 56.9688C95.7083 56.6979 96.0312 56.5625 96.3438 56.5625C96.7604 56.5625 97.1042 56.7708 97.375 57.1875C97.6667 57.5833 97.8125 58.0312 97.8125 58.5312C97.8125 59.1146 97.6146 59.6042 97.2188 60ZM98.9688 50.0312C99.3854 49.1354 99.9062 48.4688 100.531 48.0312C101.156 47.5938 101.771 47.375 102.375 47.375C102.875 47.375 103.323 47.5625 103.719 47.9375C104.115 48.2917 104.312 48.8229 104.312 49.5312C104.312 49.8021 104.281 50.0938 104.219 50.4062C104.156 50.7188 104.042 51.0521 103.875 51.4062C104.333 50.8229 104.99 50.2292 105.844 49.625C106.698 49 107.635 48.4479 108.656 47.9688C109.698 47.4688 110.76 47.0625 111.844 46.75C112.948 46.4375 113.99 46.2812 114.969 46.2812C116.073 46.2812 116.99 46.5521 117.719 47.0938C118.469 47.6146 118.844 48.5104 118.844 49.7812C118.844 50.5312 118.729 51.3125 118.5 52.125C118.271 52.9375 117.969 53.75 117.594 54.5625C117.24 55.375 116.833 56.1771 116.375 56.9688C115.938 57.7396 115.5 58.4688 115.062 59.1562C114.625 59.8438 114.219 60.4792 113.844 61.0625C113.49 61.625 113.208 62.0938 113 62.4688C112.729 62.8021 112.594 63.1875 112.594 63.625C112.594 63.7917 112.646 63.9375 112.75 64.0625C112.854 64.1875 113.021 64.25 113.25 64.25C113.396 64.25 113.562 64.2396 113.75 64.2188C113.938 64.1771 114.167 64.0625 114.438 63.875C115.562 63.4583 116.708 62.9375 117.875 62.3125C119.062 61.6875 120.198 61.0312 121.281 60.3438C122.365 59.6354 123.354 58.9375 124.25 58.25C125.167 57.5417 125.927 56.9062 126.531 56.3438C126.698 56.1979 126.865 56.0938 127.031 56.0312C127.198 55.9688 127.354 55.9375 127.5 55.9375C127.854 55.9375 128.125 56.0729 128.312 56.3438C128.521 56.6146 128.625 56.9583 128.625 57.375C128.625 58.0208 128.417 58.7396 128 59.5312C127.604 60.3229 126.969 61.0625 126.094 61.75C124.906 62.6042 123.812 63.3854 122.812 64.0938C121.833 64.8021 120.823 65.4688 119.781 66.0938C118.76 66.6979 117.656 67.2708 116.469 67.8125C115.302 68.3333 113.927 68.8229 112.344 69.2812C111.802 69.4479 111.302 69.5729 110.844 69.6562C110.406 69.7396 110 69.7812 109.625 69.7812C108.521 69.7812 107.708 69.4792 107.188 68.875C106.688 68.25 106.438 67.3854 106.438 66.2812C106.438 66.1354 106.438 66 106.438 65.875C106.458 65.7292 106.479 65.5729 106.5 65.4062C106.542 64.7604 106.708 64.0521 107 63.2812C107.312 62.5104 107.677 61.7188 108.094 60.9062C108.531 60.0938 108.99 59.2917 109.469 58.5C109.948 57.6875 110.385 56.9271 110.781 56.2188C111.198 55.4896 111.542 54.8438 111.812 54.2812C112.083 53.7188 112.219 53.2604 112.219 52.9062C112.219 52.5938 112.125 52.3333 111.938 52.125C111.771 51.8958 111.51 51.7812 111.156 51.7812C109.823 51.7812 108.552 52.1771 107.344 52.9688C106.156 53.7604 105.042 54.7396 104 55.9062C102.958 57.0521 102 58.2708 101.125 59.5625C100.25 60.8542 99.4792 62.0104 98.8125 63.0312C98.3958 63.7188 98.0104 64.4583 97.6562 65.25C97.3229 66.0208 96.9688 66.75 96.5938 67.4375C96.2188 68.1042 95.7917 68.6562 95.3125 69.0938C94.8542 69.5521 94.2708 69.7812 93.5625 69.7812C92.8333 69.7812 92.2604 69.5521 91.8438 69.0938C91.4271 68.6354 91.2188 68.0729 91.2188 67.4062C91.2188 67.0521 91.3646 66.4792 91.6562 65.6875C91.9479 64.8958 92.3229 63.9792 92.7812 62.9375C93.2396 61.8958 93.75 60.7812 94.3125 59.5938C94.8958 58.3854 95.4688 57.1979 96.0312 56.0312C96.6146 54.8438 97.1667 53.7292 97.6875 52.6875C98.2083 51.6458 98.6354 50.7604 98.9688 50.0312ZM131.25 41.9688C131.25 41.4896 131.333 41 131.5 40.5C131.688 39.9792 131.958 39.5104 132.312 39.0938C132.667 38.6771 133.104 38.3333 133.625 38.0625C134.167 37.7917 134.802 37.6562 135.531 37.6562C136.74 37.6562 137.583 37.8958 138.062 38.375C138.542 38.8333 138.781 39.4167 138.781 40.125C138.781 40.5208 138.698 40.9583 138.531 41.4375C138.385 41.9167 138.156 42.3646 137.844 42.7812C137.531 43.1771 137.125 43.5104 136.625 43.7812C136.125 44.0521 135.531 44.1875 134.844 44.1875C133.552 44.1875 132.646 43.9896 132.125 43.5938C131.604 43.1771 131.312 42.6354 131.25 41.9688ZM127.812 49C128.167 48.4167 128.573 48 129.031 47.75C129.49 47.5 129.958 47.375 130.438 47.375C131.229 47.375 131.906 47.6354 132.469 48.1562C133.052 48.6562 133.344 49.3021 133.344 50.0938C133.323 50.2812 133.292 50.4688 133.25 50.6562C133.229 50.8438 133.167 51.0312 133.062 51.2188C132.771 51.7604 132.531 52.2188 132.344 52.5938C132.156 52.9688 131.979 53.3229 131.812 53.6562C131.667 53.9688 131.521 54.2812 131.375 54.5938C131.229 54.9062 131.052 55.2812 130.844 55.7188C130.594 56.2396 130.312 56.8125 130 57.4375C129.688 58.0417 129.385 58.6667 129.094 59.3125C128.823 59.9583 128.583 60.5938 128.375 61.2188C128.188 61.8438 128.094 62.4167 128.094 62.9375C128.094 63.5 128.229 63.875 128.5 64.0625C128.792 64.2292 129.198 64.3125 129.719 64.3125C130.302 64.3125 130.906 64.1875 131.531 63.9375C132.177 63.6875 132.823 63.3646 133.469 62.9688C134.115 62.5729 134.75 62.125 135.375 61.625C136 61.1042 136.583 60.5833 137.125 60.0625C137.688 59.5417 138.198 59.0417 138.656 58.5625C139.135 58.0833 139.531 57.6562 139.844 57.2812C140.26 56.8854 140.677 56.6875 141.094 56.6875C141.469 56.6875 141.771 56.8542 142 57.1875C142.25 57.5208 142.375 57.9479 142.375 58.4688C142.375 58.9479 142.25 59.4583 142 60C141.771 60.5417 141.385 61.0521 140.844 61.5312C139.781 62.6146 138.698 63.6562 137.594 64.6562C136.49 65.6354 135.354 66.5104 134.188 67.2812C133.042 68.0312 131.885 68.6354 130.719 69.0938C129.552 69.5521 128.375 69.7812 127.188 69.7812C125.5 69.7812 124.167 69.3542 123.188 68.5C122.229 67.625 121.75 66.2708 121.75 64.4375C121.75 63.4792 121.885 62.5417 122.156 61.625C122.427 60.7083 122.75 59.8229 123.125 58.9688C123.5 58.0938 123.896 57.2604 124.312 56.4688C124.729 55.6562 125.083 54.8854 125.375 54.1562C125.479 53.8854 125.656 53.4688 125.906 52.9062C126.177 52.3438 126.458 51.7708 126.75 51.1875C127.083 50.5 127.438 49.7708 127.812 49ZM196.844 66.7812C197.031 64.9896 197.26 62.9167 197.531 60.5625C197.802 58.2083 198.094 55.75 198.406 53.1875C198.719 50.6042 199.031 48.0104 199.344 45.4062C199.677 42.8021 200 40.3646 200.312 38.0938C199.208 40.2188 198.094 42.3542 196.969 44.5C195.844 46.6458 194.771 48.6875 193.75 50.625C192.75 52.5417 191.823 54.2812 190.969 55.8438C190.135 57.4062 189.458 58.6667 188.938 59.625C188.458 60.2708 187.979 60.8854 187.5 61.4688C187.021 62.0521 186.542 62.5625 186.062 63C185.604 63.4375 185.146 63.7917 184.688 64.0625C184.229 64.3125 183.781 64.4375 183.344 64.4375C182.76 64.4375 182.292 64.3125 181.938 64.0625C181.604 63.8125 181.438 63.4375 181.438 62.9375C181.438 62.8333 181.438 62.7396 181.438 62.6562C181.458 62.5521 181.49 62.4479 181.531 62.3438C181.406 59.3854 181.312 56.4062 181.25 53.4062C181.188 50.3854 181.156 47.4167 181.156 44.5C181.156 43.8125 181.156 43.125 181.156 42.4375C181.156 41.75 181.167 41.0729 181.188 40.4062C180.354 42.2812 179.448 44.2292 178.469 46.25C177.49 48.2708 176.469 50.2708 175.406 52.25C174.344 54.2083 173.25 56.1042 172.125 57.9375C171 59.75 169.875 61.4062 168.75 62.9062C167.625 64.3854 166.51 65.6562 165.406 66.7188C164.323 67.7604 163.281 68.4896 162.281 68.9062C161.406 69.2604 160.646 69.5104 160 69.6562C159.354 69.8229 158.781 69.9062 158.281 69.9062C157.531 69.9062 156.969 69.75 156.594 69.4375C156.24 69.1458 156.062 68.7812 156.062 68.3438C156.062 67.8229 156.281 67.2812 156.719 66.7188C157.156 66.1562 157.771 65.7188 158.562 65.4062C159.521 65.0312 160.562 64.2083 161.688 62.9375C162.833 61.6458 164.01 60.0833 165.219 58.25C166.427 56.4167 167.646 54.375 168.875 52.125C170.104 49.875 171.292 47.5938 172.438 45.2812C173.604 42.9688 174.698 40.7083 175.719 38.5C176.74 36.2708 177.646 34.2604 178.438 32.4688C179.229 30.6771 179.875 29.1875 180.375 28C180.896 26.7917 181.219 26.0417 181.344 25.75C181.635 25.1042 182.042 24.6354 182.562 24.3438C183.083 24.0521 183.615 23.9062 184.156 23.9062C184.906 23.9062 185.427 24.1146 185.719 24.5312C186.01 24.9271 186.156 25.6458 186.156 26.6875C186.323 28 186.458 29.2396 186.562 30.4062C186.688 31.5521 186.792 32.7396 186.875 33.9688C186.958 35.1771 187.01 36.4896 187.031 37.9062C187.073 39.3021 187.094 40.9167 187.094 42.75C187.094 44.0625 187.062 45.5104 187 47.0938C186.958 48.6771 186.938 50.4479 186.938 52.4062C189.438 47.8646 191.646 43.8646 193.562 40.4062C195.5 36.9271 197.177 34.0208 198.594 31.6875C200.031 29.3333 201.24 27.5625 202.219 26.375C203.198 25.1667 203.979 24.5625 204.562 24.5625H204.781C204.844 24.5625 204.906 24.5625 204.969 24.5625C205.031 24.5417 205.094 24.5312 205.156 24.5312C205.656 24.5312 206.052 24.8438 206.344 25.4688C206.635 26.0938 206.781 26.9062 206.781 27.9062C206.698 28.9271 206.573 30.1979 206.406 31.7188C206.24 33.2396 206.042 34.9167 205.812 36.75C205.604 38.5625 205.375 40.4792 205.125 42.5C204.875 44.5208 204.625 46.5312 204.375 48.5312C204.125 50.5104 203.885 52.4375 203.656 54.3125C203.448 56.1875 203.271 57.8854 203.125 59.4062C203.083 59.6771 203.062 59.9583 203.062 60.25C203.062 60.5208 203.062 60.8021 203.062 61.0938C203.062 61.6354 203.073 62.1875 203.094 62.75C203.115 63.2917 203.125 63.8333 203.125 64.375C203.125 65 203.094 65.6354 203.031 66.2812C202.969 66.9062 202.792 67.4792 202.5 68C202.229 68.5 201.792 68.9062 201.188 69.2188C200.583 69.5521 199.75 69.7188 198.688 69.7188C198.125 69.7188 197.677 69.5 197.344 69.0625C197.01 68.6458 196.844 67.8854 196.844 66.7812ZM218.188 41.9688C218.188 41.4896 218.271 41 218.438 40.5C218.625 39.9792 218.896 39.5104 219.25 39.0938C219.604 38.6771 220.042 38.3333 220.562 38.0625C221.104 37.7917 221.74 37.6562 222.469 37.6562C223.677 37.6562 224.521 37.8958 225 38.375C225.479 38.8333 225.719 39.4167 225.719 40.125C225.719 40.5208 225.635 40.9583 225.469 41.4375C225.323 41.9167 225.094 42.3646 224.781 42.7812C224.469 43.1771 224.062 43.5104 223.562 43.7812C223.062 44.0521 222.469 44.1875 221.781 44.1875C220.49 44.1875 219.583 43.9896 219.062 43.5938C218.542 43.1771 218.25 42.6354 218.188 41.9688ZM214.75 49C215.104 48.4167 215.51 48 215.969 47.75C216.427 47.5 216.896 47.375 217.375 47.375C218.167 47.375 218.844 47.6354 219.406 48.1562C219.99 48.6562 220.281 49.3021 220.281 50.0938C220.26 50.2812 220.229 50.4688 220.188 50.6562C220.167 50.8438 220.104 51.0312 220 51.2188C219.708 51.7604 219.469 52.2188 219.281 52.5938C219.094 52.9688 218.917 53.3229 218.75 53.6562C218.604 53.9688 218.458 54.2812 218.312 54.5938C218.167 54.9062 217.99 55.2812 217.781 55.7188C217.531 56.2396 217.25 56.8125 216.938 57.4375C216.625 58.0417 216.323 58.6667 216.031 59.3125C215.76 59.9583 215.521 60.5938 215.312 61.2188C215.125 61.8438 215.031 62.4167 215.031 62.9375C215.031 63.5 215.167 63.875 215.438 64.0625C215.729 64.2292 216.135 64.3125 216.656 64.3125C217.24 64.3125 217.844 64.1875 218.469 63.9375C219.115 63.6875 219.76 63.3646 220.406 62.9688C221.052 62.5729 221.688 62.125 222.312 61.625C222.938 61.1042 223.521 60.5833 224.062 60.0625C224.625 59.5417 225.135 59.0417 225.594 58.5625C226.073 58.0833 226.469 57.6562 226.781 57.2812C227.198 56.8854 227.615 56.6875 228.031 56.6875C228.406 56.6875 228.708 56.8542 228.938 57.1875C229.188 57.5208 229.312 57.9479 229.312 58.4688C229.312 58.9479 229.188 59.4583 228.938 60C228.708 60.5417 228.323 61.0521 227.781 61.5312C226.719 62.6146 225.635 63.6562 224.531 64.6562C223.427 65.6354 222.292 66.5104 221.125 67.2812C219.979 68.0312 218.823 68.6354 217.656 69.0938C216.49 69.5521 215.312 69.7812 214.125 69.7812C212.438 69.7812 211.104 69.3542 210.125 68.5C209.167 67.625 208.688 66.2708 208.688 64.4375C208.688 63.4792 208.823 62.5417 209.094 61.625C209.365 60.7083 209.688 59.8229 210.062 58.9688C210.438 58.0938 210.833 57.2604 211.25 56.4688C211.667 55.6562 212.021 54.8854 212.312 54.1562C212.417 53.8854 212.594 53.4688 212.844 52.9062C213.115 52.3438 213.396 51.7708 213.688 51.1875C214.021 50.5 214.375 49.7708 214.75 49ZM230.656 50.0312C231.073 49.1354 231.594 48.4688 232.219 48.0312C232.844 47.5938 233.458 47.375 234.062 47.375C234.562 47.375 235.01 47.5625 235.406 47.9375C235.802 48.2917 236 48.8229 236 49.5312C236 49.8021 235.969 50.0938 235.906 50.4062C235.844 50.7188 235.729 51.0521 235.562 51.4062C236.021 50.8229 236.677 50.2292 237.531 49.625C238.385 49 239.323 48.4479 240.344 47.9688C241.385 47.4688 242.448 47.0625 243.531 46.75C244.635 46.4375 245.677 46.2812 246.656 46.2812C247.76 46.2812 248.677 46.5521 249.406 47.0938C250.156 47.6146 250.531 48.5104 250.531 49.7812C250.531 50.5312 250.417 51.3125 250.188 52.125C249.958 52.9375 249.656 53.75 249.281 54.5625C248.927 55.375 248.521 56.1771 248.062 56.9688C247.625 57.7396 247.188 58.4688 246.75 59.1562C246.312 59.8438 245.906 60.4792 245.531 61.0625C245.177 61.625 244.896 62.0938 244.688 62.4688C244.417 62.8021 244.281 63.1875 244.281 63.625C244.281 63.7917 244.333 63.9375 244.438 64.0625C244.542 64.1875 244.708 64.25 244.938 64.25C245.083 64.25 245.25 64.2396 245.438 64.2188C245.625 64.1771 245.854 64.0625 246.125 63.875C247.25 63.4583 248.396 62.9375 249.562 62.3125C250.75 61.6875 251.885 61.0312 252.969 60.3438C254.052 59.6354 255.042 58.9375 255.938 58.25C256.854 57.5417 257.615 56.9062 258.219 56.3438C258.385 56.1979 258.552 56.0938 258.719 56.0312C258.885 55.9688 259.042 55.9375 259.188 55.9375C259.542 55.9375 259.812 56.0729 260 56.3438C260.208 56.6146 260.312 56.9583 260.312 57.375C260.312 58.0208 260.104 58.7396 259.688 59.5312C259.292 60.3229 258.656 61.0625 257.781 61.75C256.594 62.6042 255.5 63.3854 254.5 64.0938C253.521 64.8021 252.51 65.4688 251.469 66.0938C250.448 66.6979 249.344 67.2708 248.156 67.8125C246.99 68.3333 245.615 68.8229 244.031 69.2812C243.49 69.4479 242.99 69.5729 242.531 69.6562C242.094 69.7396 241.688 69.7812 241.312 69.7812C240.208 69.7812 239.396 69.4792 238.875 68.875C238.375 68.25 238.125 67.3854 238.125 66.2812C238.125 66.1354 238.125 66 238.125 65.875C238.146 65.7292 238.167 65.5729 238.188 65.4062C238.229 64.7604 238.396 64.0521 238.688 63.2812C239 62.5104 239.365 61.7188 239.781 60.9062C240.219 60.0938 240.677 59.2917 241.156 58.5C241.635 57.6875 242.073 56.9271 242.469 56.2188C242.885 55.4896 243.229 54.8438 243.5 54.2812C243.771 53.7188 243.906 53.2604 243.906 52.9062C243.906 52.5938 243.812 52.3333 243.625 52.125C243.458 51.8958 243.198 51.7812 242.844 51.7812C241.51 51.7812 240.24 52.1771 239.031 52.9688C237.844 53.7604 236.729 54.7396 235.688 55.9062C234.646 57.0521 233.688 58.2708 232.812 59.5625C231.938 60.8542 231.167 62.0104 230.5 63.0312C230.083 63.7188 229.698 64.4583 229.344 65.25C229.01 66.0208 228.656 66.75 228.281 67.4375C227.906 68.1042 227.479 68.6562 227 69.0938C226.542 69.5521 225.958 69.7812 225.25 69.7812C224.521 69.7812 223.948 69.5521 223.531 69.0938C223.115 68.6354 222.906 68.0729 222.906 67.4062C222.906 67.0521 223.052 66.4792 223.344 65.6875C223.635 64.8958 224.01 63.9792 224.469 62.9375C224.927 61.8958 225.438 60.7812 226 59.5938C226.583 58.3854 227.156 57.1979 227.719 56.0312C228.302 54.8438 228.854 53.7292 229.375 52.6875C229.896 51.6458 230.323 50.7604 230.656 50.0312ZM262.938 41.9688C262.938 41.4896 263.021 41 263.188 40.5C263.375 39.9792 263.646 39.5104 264 39.0938C264.354 38.6771 264.792 38.3333 265.312 38.0625C265.854 37.7917 266.49 37.6562 267.219 37.6562C268.427 37.6562 269.271 37.8958 269.75 38.375C270.229 38.8333 270.469 39.4167 270.469 40.125C270.469 40.5208 270.385 40.9583 270.219 41.4375C270.073 41.9167 269.844 42.3646 269.531 42.7812C269.219 43.1771 268.812 43.5104 268.312 43.7812C267.812 44.0521 267.219 44.1875 266.531 44.1875C265.24 44.1875 264.333 43.9896 263.812 43.5938C263.292 43.1771 263 42.6354 262.938 41.9688ZM259.5 49C259.854 48.4167 260.26 48 260.719 47.75C261.177 47.5 261.646 47.375 262.125 47.375C262.917 47.375 263.594 47.6354 264.156 48.1562C264.74 48.6562 265.031 49.3021 265.031 50.0938C265.01 50.2812 264.979 50.4688 264.938 50.6562C264.917 50.8438 264.854 51.0312 264.75 51.2188C264.458 51.7604 264.219 52.2188 264.031 52.5938C263.844 52.9688 263.667 53.3229 263.5 53.6562C263.354 53.9688 263.208 54.2812 263.062 54.5938C262.917 54.9062 262.74 55.2812 262.531 55.7188C262.281 56.2396 262 56.8125 261.688 57.4375C261.375 58.0417 261.073 58.6667 260.781 59.3125C260.51 59.9583 260.271 60.5938 260.062 61.2188C259.875 61.8438 259.781 62.4167 259.781 62.9375C259.781 63.5 259.917 63.875 260.188 64.0625C260.479 64.2292 260.885 64.3125 261.406 64.3125C261.99 64.3125 262.594 64.1875 263.219 63.9375C263.865 63.6875 264.51 63.3646 265.156 62.9688C265.802 62.5729 266.438 62.125 267.062 61.625C267.688 61.1042 268.271 60.5833 268.812 60.0625C269.375 59.5417 269.885 59.0417 270.344 58.5625C270.823 58.0833 271.219 57.6562 271.531 57.2812C271.948 56.8854 272.365 56.6875 272.781 56.6875C273.156 56.6875 273.458 56.8542 273.688 57.1875C273.938 57.5208 274.062 57.9479 274.062 58.4688C274.062 58.9479 273.938 59.4583 273.688 60C273.458 60.5417 273.073 61.0521 272.531 61.5312C271.469 62.6146 270.385 63.6562 269.281 64.6562C268.177 65.6354 267.042 66.5104 265.875 67.2812C264.729 68.0312 263.573 68.6354 262.406 69.0938C261.24 69.5521 260.062 69.7812 258.875 69.7812C257.188 69.7812 255.854 69.3542 254.875 68.5C253.917 67.625 253.438 66.2708 253.438 64.4375C253.438 63.4792 253.573 62.5417 253.844 61.625C254.115 60.7083 254.438 59.8229 254.812 58.9688C255.188 58.0938 255.583 57.2604 256 56.4688C256.417 55.6562 256.771 54.8854 257.062 54.1562C257.167 53.8854 257.344 53.4688 257.594 52.9062C257.865 52.3438 258.146 51.7708 258.438 51.1875C258.771 50.5 259.125 49.7708 259.5 49Z" fill="#FF0000"/>
<path d="M46.4062 62.7812C46.5938 60.9896 46.8229 58.9167 47.0938 56.5625C47.3646 54.2083 47.6562 51.75 47.9688 49.1875C48.2812 46.6042 48.5938 44.0104 48.9062 41.4062C49.2396 38.8021 49.5625 36.3646 49.875 34.0938C48.7708 36.2188 47.6562 38.3542 46.5312 40.5C45.4062 42.6458 44.3333 44.6875 43.3125 46.625C42.3125 48.5417 41.3854 50.2812 40.5312 51.8438C39.6979 53.4062 39.0208 54.6667 38.5 55.625C38.0208 56.2708 37.5417 56.8854 37.0625 57.4688C36.5833 58.0521 36.1042 58.5625 35.625 59C35.1667 59.4375 34.7083 59.7917 34.25 60.0625C33.7917 60.3125 33.3438 60.4375 32.9062 60.4375C32.3229 60.4375 31.8542 60.3125 31.5 60.0625C31.1667 59.8125 31 59.4375 31 58.9375C31 58.8333 31 58.7396 31 58.6562C31.0208 58.5521 31.0521 58.4479 31.0938 58.3438C30.9688 55.3854 30.875 52.4062 30.8125 49.4062C30.75 46.3854 30.7188 43.4167 30.7188 40.5C30.7188 39.8125 30.7188 39.125 30.7188 38.4375C30.7188 37.75 30.7292 37.0729 30.75 36.4062C29.9167 38.2812 29.0104 40.2292 28.0312 42.25C27.0521 44.2708 26.0312 46.2708 24.9688 48.25C23.9062 50.2083 22.8125 52.1042 21.6875 53.9375C20.5625 55.75 19.4375 57.4062 18.3125 58.9062C17.1875 60.3854 16.0729 61.6562 14.9688 62.7188C13.8854 63.7604 12.8438 64.4896 11.8438 64.9062C10.9688 65.2604 10.2083 65.5104 9.5625 65.6562C8.91667 65.8229 8.34375 65.9062 7.84375 65.9062C7.09375 65.9062 6.53125 65.75 6.15625 65.4375C5.80208 65.1458 5.625 64.7812 5.625 64.3438C5.625 63.8229 5.84375 63.2812 6.28125 62.7188C6.71875 62.1562 7.33333 61.7188 8.125 61.4062C9.08333 61.0312 10.125 60.2083 11.25 58.9375C12.3958 57.6458 13.5729 56.0833 14.7812 54.25C15.9896 52.4167 17.2083 50.375 18.4375 48.125C19.6667 45.875 20.8542 43.5938 22 41.2812C23.1667 38.9688 24.2604 36.7083 25.2812 34.5C26.3021 32.2708 27.2083 30.2604 28 28.4688C28.7917 26.6771 29.4375 25.1875 29.9375 24C30.4583 22.7917 30.7812 22.0417 30.9062 21.75C31.1979 21.1042 31.6042 20.6354 32.125 20.3438C32.6458 20.0521 33.1771 19.9062 33.7188 19.9062C34.4688 19.9062 34.9896 20.1146 35.2812 20.5312C35.5729 20.9271 35.7188 21.6458 35.7188 22.6875C35.8854 24 36.0208 25.2396 36.125 26.4062C36.25 27.5521 36.3542 28.7396 36.4375 29.9688C36.5208 31.1771 36.5729 32.4896 36.5938 33.9062C36.6354 35.3021 36.6562 36.9167 36.6562 38.75C36.6562 40.0625 36.625 41.5104 36.5625 43.0938C36.5208 44.6771 36.5 46.4479 36.5 48.4062C39 43.8646 41.2083 39.8646 43.125 36.4062C45.0625 32.9271 46.7396 30.0208 48.1562 27.6875C49.5938 25.3333 50.8021 23.5625 51.7812 22.375C52.7604 21.1667 53.5417 20.5625 54.125 20.5625H54.3438C54.4062 20.5625 54.4688 20.5625 54.5312 20.5625C54.5938 20.5417 54.6562 20.5312 54.7188 20.5312C55.2188 20.5312 55.6146 20.8438 55.9062 21.4688C56.1979 22.0938 56.3438 22.9062 56.3438 23.9062C56.2604 24.9271 56.1354 26.1979 55.9688 27.7188C55.8021 29.2396 55.6042 30.9167 55.375 32.75C55.1667 34.5625 54.9375 36.4792 54.6875 38.5C54.4375 40.5208 54.1875 42.5312 53.9375 44.5312C53.6875 46.5104 53.4479 48.4375 53.2188 50.3125C53.0104 52.1875 52.8333 53.8854 52.6875 55.4062C52.6458 55.6771 52.625 55.9583 52.625 56.25C52.625 56.5208 52.625 56.8021 52.625 57.0938C52.625 57.6354 52.6354 58.1875 52.6562 58.75C52.6771 59.2917 52.6875 59.8333 52.6875 60.375C52.6875 61 52.6562 61.6354 52.5938 62.2812C52.5312 62.9062 52.3542 63.4792 52.0625 64C51.7917 64.5 51.3542 64.9062 50.75 65.2188C50.1458 65.5521 49.3125 65.7188 48.25 65.7188C47.6875 65.7188 47.2396 65.5 46.9062 65.0625C46.5729 64.6458 46.4062 63.8854 46.4062 62.7812ZM72.5625 47.9375C71.5833 47.9375 70.6354 48.1875 69.7188 48.6875C68.8021 49.1875 67.9896 49.8438 67.2812 50.6562C66.5729 51.4688 66.0104 52.3854 65.5938 53.4062C65.1771 54.4062 64.9688 55.4167 64.9688 56.4375C64.9688 56.8542 64.9896 57.2917 65.0312 57.75C65.0938 58.1875 65.2188 58.5938 65.4062 58.9688C65.5938 59.3438 65.8542 59.6562 66.1875 59.9062C66.5417 60.1562 67.0104 60.2812 67.5938 60.2812C68.0521 60.2812 68.5833 60.0833 69.1875 59.6875C69.8125 59.2708 70.4479 58.75 71.0938 58.125C71.7604 57.4792 72.4062 56.7812 73.0312 56.0312C73.6562 55.2604 74.2188 54.5104 74.7188 53.7812C75.2188 53.0521 75.625 52.3958 75.9375 51.8125C76.25 51.2292 76.4062 50.8021 76.4062 50.5312C76.4062 50.1354 76.2708 49.7812 76 49.4688C75.7292 49.1354 75.3958 48.8542 75 48.625C74.6042 48.3958 74.1771 48.2292 73.7188 48.125C73.2812 48 72.8958 47.9375 72.5625 47.9375ZM94.2188 56C93.8438 56.3542 93.3438 56.8438 92.7188 57.4688C92.0938 58.0938 91.375 58.7708 90.5625 59.5C89.7708 60.2292 88.9167 60.9688 88 61.7188C87.1042 62.4479 86.1771 63.1146 85.2188 63.7188C84.2812 64.3229 83.3542 64.8125 82.4375 65.1875C81.5208 65.5833 80.6562 65.7812 79.8438 65.7812C79.1146 65.7812 78.4896 65.625 77.9688 65.3125C77.4479 65 77.0104 64.5938 76.6562 64.0938C76.3229 63.5938 76.0729 63.0312 75.9062 62.4062C75.7396 61.7604 75.6562 61.1042 75.6562 60.4375C75.6562 60 75.6875 59.5729 75.75 59.1562C75.8125 58.7188 75.9167 58.3125 76.0625 57.9375C75.4167 58.8125 74.6771 59.7188 73.8438 60.6562C73.0312 61.5729 72.1458 62.4167 71.1875 63.1875C70.25 63.9375 69.2604 64.5521 68.2188 65.0312C67.1979 65.5312 66.1562 65.7812 65.0938 65.7812C64.5521 65.7812 63.9167 65.6667 63.1875 65.4375C62.4792 65.2292 61.8021 64.875 61.1562 64.375C60.5104 63.875 59.9688 63.2292 59.5312 62.4375C59.0938 61.6458 58.875 60.6771 58.875 59.5312C58.875 58.6771 59 57.6562 59.25 56.4688C59.5208 55.2812 59.9167 54.0521 60.4375 52.7812C60.9792 51.4896 61.6562 50.2188 62.4688 48.9688C63.3021 47.7188 64.2812 46.6042 65.4062 45.625C66.5312 44.625 67.8125 43.8229 69.25 43.2188C70.6875 42.5938 72.2917 42.2812 74.0625 42.2812C74.9792 42.2812 75.7812 42.3958 76.4688 42.625C77.1562 42.8542 77.7396 43.1042 78.2188 43.375C78.7604 43.7083 79.2396 44.0729 79.6562 44.4688C80.0104 44.2812 80.375 44.1042 80.75 43.9375C81.0625 43.7917 81.3854 43.6667 81.7188 43.5625C82.0729 43.4375 82.375 43.375 82.625 43.375C83.4167 43.375 84.0625 43.5938 84.5625 44.0312C85.0625 44.4688 85.3125 44.9479 85.3125 45.4688C85.3125 45.6146 85.3021 45.7292 85.2812 45.8125C85.1771 46.2083 85.0104 46.7083 84.7812 47.3125C84.5729 47.9167 84.3333 48.5938 84.0625 49.3438C83.7917 50.0729 83.5104 50.8438 83.2188 51.6562C82.9479 52.4479 82.6979 53.2292 82.4688 54C82.2396 54.7708 82.0521 55.5 81.9062 56.1875C81.7604 56.8542 81.6875 57.4271 81.6875 57.9062C81.6875 58.5312 81.7917 59.0521 82 59.4688C82.2083 59.8646 82.5625 60.0625 83.0625 60.0625C83.375 60.0625 83.7396 59.9688 84.1562 59.7812C84.5938 59.5729 85.0625 59.3021 85.5625 58.9688C86.0625 58.6354 86.5729 58.2604 87.0938 57.8438C87.6354 57.4062 88.1562 56.9688 88.6562 56.5312C89.8229 55.4896 91.0625 54.3021 92.375 52.9688C92.7083 52.6979 93.0312 52.5625 93.3438 52.5625C93.7604 52.5625 94.1042 52.7708 94.375 53.1875C94.6667 53.5833 94.8125 54.0312 94.8125 54.5312C94.8125 55.1146 94.6146 55.6042 94.2188 56ZM95.9688 46.0312C96.3854 45.1354 96.9062 44.4688 97.5312 44.0312C98.1562 43.5938 98.7708 43.375 99.375 43.375C99.875 43.375 100.323 43.5625 100.719 43.9375C101.115 44.2917 101.312 44.8229 101.312 45.5312C101.312 45.8021 101.281 46.0938 101.219 46.4062C101.156 46.7188 101.042 47.0521 100.875 47.4062C101.333 46.8229 101.99 46.2292 102.844 45.625C103.698 45 104.635 44.4479 105.656 43.9688C106.698 43.4688 107.76 43.0625 108.844 42.75C109.948 42.4375 110.99 42.2812 111.969 42.2812C113.073 42.2812 113.99 42.5521 114.719 43.0938C115.469 43.6146 115.844 44.5104 115.844 45.7812C115.844 46.5312 115.729 47.3125 115.5 48.125C115.271 48.9375 114.969 49.75 114.594 50.5625C114.24 51.375 113.833 52.1771 113.375 52.9688C112.938 53.7396 112.5 54.4688 112.062 55.1562C111.625 55.8438 111.219 56.4792 110.844 57.0625C110.49 57.625 110.208 58.0938 110 58.4688C109.729 58.8021 109.594 59.1875 109.594 59.625C109.594 59.7917 109.646 59.9375 109.75 60.0625C109.854 60.1875 110.021 60.25 110.25 60.25C110.396 60.25 110.562 60.2396 110.75 60.2188C110.938 60.1771 111.167 60.0625 111.438 59.875C112.562 59.4583 113.708 58.9375 114.875 58.3125C116.062 57.6875 117.198 57.0312 118.281 56.3438C119.365 55.6354 120.354 54.9375 121.25 54.25C122.167 53.5417 122.927 52.9062 123.531 52.3438C123.698 52.1979 123.865 52.0938 124.031 52.0312C124.198 51.9688 124.354 51.9375 124.5 51.9375C124.854 51.9375 125.125 52.0729 125.312 52.3438C125.521 52.6146 125.625 52.9583 125.625 53.375C125.625 54.0208 125.417 54.7396 125 55.5312C124.604 56.3229 123.969 57.0625 123.094 57.75C121.906 58.6042 120.812 59.3854 119.812 60.0938C118.833 60.8021 117.823 61.4688 116.781 62.0938C115.76 62.6979 114.656 63.2708 113.469 63.8125C112.302 64.3333 110.927 64.8229 109.344 65.2812C108.802 65.4479 108.302 65.5729 107.844 65.6562C107.406 65.7396 107 65.7812 106.625 65.7812C105.521 65.7812 104.708 65.4792 104.188 64.875C103.688 64.25 103.438 63.3854 103.438 62.2812C103.438 62.1354 103.438 62 103.438 61.875C103.458 61.7292 103.479 61.5729 103.5 61.4062C103.542 60.7604 103.708 60.0521 104 59.2812C104.312 58.5104 104.677 57.7188 105.094 56.9062C105.531 56.0938 105.99 55.2917 106.469 54.5C106.948 53.6875 107.385 52.9271 107.781 52.2188C108.198 51.4896 108.542 50.8438 108.812 50.2812C109.083 49.7188 109.219 49.2604 109.219 48.9062C109.219 48.5938 109.125 48.3333 108.938 48.125C108.771 47.8958 108.51 47.7812 108.156 47.7812C106.823 47.7812 105.552 48.1771 104.344 48.9688C103.156 49.7604 102.042 50.7396 101 51.9062C99.9583 53.0521 99 54.2708 98.125 55.5625C97.25 56.8542 96.4792 58.0104 95.8125 59.0312C95.3958 59.7188 95.0104 60.4583 94.6562 61.25C94.3229 62.0208 93.9688 62.75 93.5938 63.4375C93.2188 64.1042 92.7917 64.6562 92.3125 65.0938C91.8542 65.5521 91.2708 65.7812 90.5625 65.7812C89.8333 65.7812 89.2604 65.5521 88.8438 65.0938C88.4271 64.6354 88.2188 64.0729 88.2188 63.4062C88.2188 63.0521 88.3646 62.4792 88.6562 61.6875C88.9479 60.8958 89.3229 59.9792 89.7812 58.9375C90.2396 57.8958 90.75 56.7812 91.3125 55.5938C91.8958 54.3854 92.4688 53.1979 93.0312 52.0312C93.6146 50.8438 94.1667 49.7292 94.6875 48.6875C95.2083 47.6458 95.6354 46.7604 95.9688 46.0312ZM128.25 37.9688C128.25 37.4896 128.333 37 128.5 36.5C128.688 35.9792 128.958 35.5104 129.312 35.0938C129.667 34.6771 130.104 34.3333 130.625 34.0625C131.167 33.7917 131.802 33.6562 132.531 33.6562C133.74 33.6562 134.583 33.8958 135.062 34.375C135.542 34.8333 135.781 35.4167 135.781 36.125C135.781 36.5208 135.698 36.9583 135.531 37.4375C135.385 37.9167 135.156 38.3646 134.844 38.7812C134.531 39.1771 134.125 39.5104 133.625 39.7812C133.125 40.0521 132.531 40.1875 131.844 40.1875C130.552 40.1875 129.646 39.9896 129.125 39.5938C128.604 39.1771 128.312 38.6354 128.25 37.9688ZM124.812 45C125.167 44.4167 125.573 44 126.031 43.75C126.49 43.5 126.958 43.375 127.438 43.375C128.229 43.375 128.906 43.6354 129.469 44.1562C130.052 44.6562 130.344 45.3021 130.344 46.0938C130.323 46.2812 130.292 46.4688 130.25 46.6562C130.229 46.8438 130.167 47.0312 130.062 47.2188C129.771 47.7604 129.531 48.2188 129.344 48.5938C129.156 48.9688 128.979 49.3229 128.812 49.6562C128.667 49.9688 128.521 50.2812 128.375 50.5938C128.229 50.9062 128.052 51.2812 127.844 51.7188C127.594 52.2396 127.312 52.8125 127 53.4375C126.688 54.0417 126.385 54.6667 126.094 55.3125C125.823 55.9583 125.583 56.5938 125.375 57.2188C125.188 57.8438 125.094 58.4167 125.094 58.9375C125.094 59.5 125.229 59.875 125.5 60.0625C125.792 60.2292 126.198 60.3125 126.719 60.3125C127.302 60.3125 127.906 60.1875 128.531 59.9375C129.177 59.6875 129.823 59.3646 130.469 58.9688C131.115 58.5729 131.75 58.125 132.375 57.625C133 57.1042 133.583 56.5833 134.125 56.0625C134.688 55.5417 135.198 55.0417 135.656 54.5625C136.135 54.0833 136.531 53.6562 136.844 53.2812C137.26 52.8854 137.677 52.6875 138.094 52.6875C138.469 52.6875 138.771 52.8542 139 53.1875C139.25 53.5208 139.375 53.9479 139.375 54.4688C139.375 54.9479 139.25 55.4583 139 56C138.771 56.5417 138.385 57.0521 137.844 57.5312C136.781 58.6146 135.698 59.6562 134.594 60.6562C133.49 61.6354 132.354 62.5104 131.188 63.2812C130.042 64.0312 128.885 64.6354 127.719 65.0938C126.552 65.5521 125.375 65.7812 124.188 65.7812C122.5 65.7812 121.167 65.3542 120.188 64.5C119.229 63.625 118.75 62.2708 118.75 60.4375C118.75 59.4792 118.885 58.5417 119.156 57.625C119.427 56.7083 119.75 55.8229 120.125 54.9688C120.5 54.0938 120.896 53.2604 121.312 52.4688C121.729 51.6562 122.083 50.8854 122.375 50.1562C122.479 49.8854 122.656 49.4688 122.906 48.9062C123.177 48.3438 123.458 47.7708 123.75 47.1875C124.083 46.5 124.438 45.7708 124.812 45ZM193.844 62.7812C194.031 60.9896 194.26 58.9167 194.531 56.5625C194.802 54.2083 195.094 51.75 195.406 49.1875C195.719 46.6042 196.031 44.0104 196.344 41.4062C196.677 38.8021 197 36.3646 197.312 34.0938C196.208 36.2188 195.094 38.3542 193.969 40.5C192.844 42.6458 191.771 44.6875 190.75 46.625C189.75 48.5417 188.823 50.2812 187.969 51.8438C187.135 53.4062 186.458 54.6667 185.938 55.625C185.458 56.2708 184.979 56.8854 184.5 57.4688C184.021 58.0521 183.542 58.5625 183.062 59C182.604 59.4375 182.146 59.7917 181.688 60.0625C181.229 60.3125 180.781 60.4375 180.344 60.4375C179.76 60.4375 179.292 60.3125 178.938 60.0625C178.604 59.8125 178.438 59.4375 178.438 58.9375C178.438 58.8333 178.438 58.7396 178.438 58.6562C178.458 58.5521 178.49 58.4479 178.531 58.3438C178.406 55.3854 178.312 52.4062 178.25 49.4062C178.188 46.3854 178.156 43.4167 178.156 40.5C178.156 39.8125 178.156 39.125 178.156 38.4375C178.156 37.75 178.167 37.0729 178.188 36.4062C177.354 38.2812 176.448 40.2292 175.469 42.25C174.49 44.2708 173.469 46.2708 172.406 48.25C171.344 50.2083 170.25 52.1042 169.125 53.9375C168 55.75 166.875 57.4062 165.75 58.9062C164.625 60.3854 163.51 61.6562 162.406 62.7188C161.323 63.7604 160.281 64.4896 159.281 64.9062C158.406 65.2604 157.646 65.5104 157 65.6562C156.354 65.8229 155.781 65.9062 155.281 65.9062C154.531 65.9062 153.969 65.75 153.594 65.4375C153.24 65.1458 153.062 64.7812 153.062 64.3438C153.062 63.8229 153.281 63.2812 153.719 62.7188C154.156 62.1562 154.771 61.7188 155.562 61.4062C156.521 61.0312 157.562 60.2083 158.688 58.9375C159.833 57.6458 161.01 56.0833 162.219 54.25C163.427 52.4167 164.646 50.375 165.875 48.125C167.104 45.875 168.292 43.5938 169.438 41.2812C170.604 38.9688 171.698 36.7083 172.719 34.5C173.74 32.2708 174.646 30.2604 175.438 28.4688C176.229 26.6771 176.875 25.1875 177.375 24C177.896 22.7917 178.219 22.0417 178.344 21.75C178.635 21.1042 179.042 20.6354 179.562 20.3438C180.083 20.0521 180.615 19.9062 181.156 19.9062C181.906 19.9062 182.427 20.1146 182.719 20.5312C183.01 20.9271 183.156 21.6458 183.156 22.6875C183.323 24 183.458 25.2396 183.562 26.4062C183.688 27.5521 183.792 28.7396 183.875 29.9688C183.958 31.1771 184.01 32.4896 184.031 33.9062C184.073 35.3021 184.094 36.9167 184.094 38.75C184.094 40.0625 184.062 41.5104 184 43.0938C183.958 44.6771 183.938 46.4479 183.938 48.4062C186.438 43.8646 188.646 39.8646 190.562 36.4062C192.5 32.9271 194.177 30.0208 195.594 27.6875C197.031 25.3333 198.24 23.5625 199.219 22.375C200.198 21.1667 200.979 20.5625 201.562 20.5625H201.781C201.844 20.5625 201.906 20.5625 201.969 20.5625C202.031 20.5417 202.094 20.5312 202.156 20.5312C202.656 20.5312 203.052 20.8438 203.344 21.4688C203.635 22.0938 203.781 22.9062 203.781 23.9062C203.698 24.9271 203.573 26.1979 203.406 27.7188C203.24 29.2396 203.042 30.9167 202.812 32.75C202.604 34.5625 202.375 36.4792 202.125 38.5C201.875 40.5208 201.625 42.5312 201.375 44.5312C201.125 46.5104 200.885 48.4375 200.656 50.3125C200.448 52.1875 200.271 53.8854 200.125 55.4062C200.083 55.6771 200.062 55.9583 200.062 56.25C200.062 56.5208 200.062 56.8021 200.062 57.0938C200.062 57.6354 200.073 58.1875 200.094 58.75C200.115 59.2917 200.125 59.8333 200.125 60.375C200.125 61 200.094 61.6354 200.031 62.2812C199.969 62.9062 199.792 63.4792 199.5 64C199.229 64.5 198.792 64.9062 198.188 65.2188C197.583 65.5521 196.75 65.7188 195.688 65.7188C195.125 65.7188 194.677 65.5 194.344 65.0625C194.01 64.6458 193.844 63.8854 193.844 62.7812ZM215.188 37.9688C215.188 37.4896 215.271 37 215.438 36.5C215.625 35.9792 215.896 35.5104 216.25 35.0938C216.604 34.6771 217.042 34.3333 217.562 34.0625C218.104 33.7917 218.74 33.6562 219.469 33.6562C220.677 33.6562 221.521 33.8958 222 34.375C222.479 34.8333 222.719 35.4167 222.719 36.125C222.719 36.5208 222.635 36.9583 222.469 37.4375C222.323 37.9167 222.094 38.3646 221.781 38.7812C221.469 39.1771 221.062 39.5104 220.562 39.7812C220.062 40.0521 219.469 40.1875 218.781 40.1875C217.49 40.1875 216.583 39.9896 216.062 39.5938C215.542 39.1771 215.25 38.6354 215.188 37.9688ZM211.75 45C212.104 44.4167 212.51 44 212.969 43.75C213.427 43.5 213.896 43.375 214.375 43.375C215.167 43.375 215.844 43.6354 216.406 44.1562C216.99 44.6562 217.281 45.3021 217.281 46.0938C217.26 46.2812 217.229 46.4688 217.188 46.6562C217.167 46.8438 217.104 47.0312 217 47.2188C216.708 47.7604 216.469 48.2188 216.281 48.5938C216.094 48.9688 215.917 49.3229 215.75 49.6562C215.604 49.9688 215.458 50.2812 215.312 50.5938C215.167 50.9062 214.99 51.2812 214.781 51.7188C214.531 52.2396 214.25 52.8125 213.938 53.4375C213.625 54.0417 213.323 54.6667 213.031 55.3125C212.76 55.9583 212.521 56.5938 212.312 57.2188C212.125 57.8438 212.031 58.4167 212.031 58.9375C212.031 59.5 212.167 59.875 212.438 60.0625C212.729 60.2292 213.135 60.3125 213.656 60.3125C214.24 60.3125 214.844 60.1875 215.469 59.9375C216.115 59.6875 216.76 59.3646 217.406 58.9688C218.052 58.5729 218.688 58.125 219.312 57.625C219.938 57.1042 220.521 56.5833 221.062 56.0625C221.625 55.5417 222.135 55.0417 222.594 54.5625C223.073 54.0833 223.469 53.6562 223.781 53.2812C224.198 52.8854 224.615 52.6875 225.031 52.6875C225.406 52.6875 225.708 52.8542 225.938 53.1875C226.188 53.5208 226.312 53.9479 226.312 54.4688C226.312 54.9479 226.188 55.4583 225.938 56C225.708 56.5417 225.323 57.0521 224.781 57.5312C223.719 58.6146 222.635 59.6562 221.531 60.6562C220.427 61.6354 219.292 62.5104 218.125 63.2812C216.979 64.0312 215.823 64.6354 214.656 65.0938C213.49 65.5521 212.312 65.7812 211.125 65.7812C209.438 65.7812 208.104 65.3542 207.125 64.5C206.167 63.625 205.688 62.2708 205.688 60.4375C205.688 59.4792 205.823 58.5417 206.094 57.625C206.365 56.7083 206.688 55.8229 207.062 54.9688C207.438 54.0938 207.833 53.2604 208.25 52.4688C208.667 51.6562 209.021 50.8854 209.312 50.1562C209.417 49.8854 209.594 49.4688 209.844 48.9062C210.115 48.3438 210.396 47.7708 210.688 47.1875C211.021 46.5 211.375 45.7708 211.75 45ZM227.656 46.0312C228.073 45.1354 228.594 44.4688 229.219 44.0312C229.844 43.5938 230.458 43.375 231.062 43.375C231.562 43.375 232.01 43.5625 232.406 43.9375C232.802 44.2917 233 44.8229 233 45.5312C233 45.8021 232.969 46.0938 232.906 46.4062C232.844 46.7188 232.729 47.0521 232.562 47.4062C233.021 46.8229 233.677 46.2292 234.531 45.625C235.385 45 236.323 44.4479 237.344 43.9688C238.385 43.4688 239.448 43.0625 240.531 42.75C241.635 42.4375 242.677 42.2812 243.656 42.2812C244.76 42.2812 245.677 42.5521 246.406 43.0938C247.156 43.6146 247.531 44.5104 247.531 45.7812C247.531 46.5312 247.417 47.3125 247.188 48.125C246.958 48.9375 246.656 49.75 246.281 50.5625C245.927 51.375 245.521 52.1771 245.062 52.9688C244.625 53.7396 244.188 54.4688 243.75 55.1562C243.312 55.8438 242.906 56.4792 242.531 57.0625C242.177 57.625 241.896 58.0938 241.688 58.4688C241.417 58.8021 241.281 59.1875 241.281 59.625C241.281 59.7917 241.333 59.9375 241.438 60.0625C241.542 60.1875 241.708 60.25 241.938 60.25C242.083 60.25 242.25 60.2396 242.438 60.2188C242.625 60.1771 242.854 60.0625 243.125 59.875C244.25 59.4583 245.396 58.9375 246.562 58.3125C247.75 57.6875 248.885 57.0312 249.969 56.3438C251.052 55.6354 252.042 54.9375 252.938 54.25C253.854 53.5417 254.615 52.9062 255.219 52.3438C255.385 52.1979 255.552 52.0938 255.719 52.0312C255.885 51.9688 256.042 51.9375 256.188 51.9375C256.542 51.9375 256.812 52.0729 257 52.3438C257.208 52.6146 257.312 52.9583 257.312 53.375C257.312 54.0208 257.104 54.7396 256.688 55.5312C256.292 56.3229 255.656 57.0625 254.781 57.75C253.594 58.6042 252.5 59.3854 251.5 60.0938C250.521 60.8021 249.51 61.4688 248.469 62.0938C247.448 62.6979 246.344 63.2708 245.156 63.8125C243.99 64.3333 242.615 64.8229 241.031 65.2812C240.49 65.4479 239.99 65.5729 239.531 65.6562C239.094 65.7396 238.688 65.7812 238.312 65.7812C237.208 65.7812 236.396 65.4792 235.875 64.875C235.375 64.25 235.125 63.3854 235.125 62.2812C235.125 62.1354 235.125 62 235.125 61.875C235.146 61.7292 235.167 61.5729 235.188 61.4062C235.229 60.7604 235.396 60.0521 235.688 59.2812C236 58.5104 236.365 57.7188 236.781 56.9062C237.219 56.0938 237.677 55.2917 238.156 54.5C238.635 53.6875 239.073 52.9271 239.469 52.2188C239.885 51.4896 240.229 50.8438 240.5 50.2812C240.771 49.7188 240.906 49.2604 240.906 48.9062C240.906 48.5938 240.812 48.3333 240.625 48.125C240.458 47.8958 240.198 47.7812 239.844 47.7812C238.51 47.7812 237.24 48.1771 236.031 48.9688C234.844 49.7604 233.729 50.7396 232.688 51.9062C231.646 53.0521 230.688 54.2708 229.812 55.5625C228.938 56.8542 228.167 58.0104 227.5 59.0312C227.083 59.7188 226.698 60.4583 226.344 61.25C226.01 62.0208 225.656 62.75 225.281 63.4375C224.906 64.1042 224.479 64.6562 224 65.0938C223.542 65.5521 222.958 65.7812 222.25 65.7812C221.521 65.7812 220.948 65.5521 220.531 65.0938C220.115 64.6354 219.906 64.0729 219.906 63.4062C219.906 63.0521 220.052 62.4792 220.344 61.6875C220.635 60.8958 221.01 59.9792 221.469 58.9375C221.927 57.8958 222.438 56.7812 223 55.5938C223.583 54.3854 224.156 53.1979 224.719 52.0312C225.302 50.8438 225.854 49.7292 226.375 48.6875C226.896 47.6458 227.323 46.7604 227.656 46.0312ZM259.938 37.9688C259.938 37.4896 260.021 37 260.188 36.5C260.375 35.9792 260.646 35.5104 261 35.0938C261.354 34.6771 261.792 34.3333 262.312 34.0625C262.854 33.7917 263.49 33.6562 264.219 33.6562C265.427 33.6562 266.271 33.8958 266.75 34.375C267.229 34.8333 267.469 35.4167 267.469 36.125C267.469 36.5208 267.385 36.9583 267.219 37.4375C267.073 37.9167 266.844 38.3646 266.531 38.7812C266.219 39.1771 265.812 39.5104 265.312 39.7812C264.812 40.0521 264.219 40.1875 263.531 40.1875C262.24 40.1875 261.333 39.9896 260.812 39.5938C260.292 39.1771 260 38.6354 259.938 37.9688ZM256.5 45C256.854 44.4167 257.26 44 257.719 43.75C258.177 43.5 258.646 43.375 259.125 43.375C259.917 43.375 260.594 43.6354 261.156 44.1562C261.74 44.6562 262.031 45.3021 262.031 46.0938C262.01 46.2812 261.979 46.4688 261.938 46.6562C261.917 46.8438 261.854 47.0312 261.75 47.2188C261.458 47.7604 261.219 48.2188 261.031 48.5938C260.844 48.9688 260.667 49.3229 260.5 49.6562C260.354 49.9688 260.208 50.2812 260.062 50.5938C259.917 50.9062 259.74 51.2812 259.531 51.7188C259.281 52.2396 259 52.8125 258.688 53.4375C258.375 54.0417 258.073 54.6667 257.781 55.3125C257.51 55.9583 257.271 56.5938 257.062 57.2188C256.875 57.8438 256.781 58.4167 256.781 58.9375C256.781 59.5 256.917 59.875 257.188 60.0625C257.479 60.2292 257.885 60.3125 258.406 60.3125C258.99 60.3125 259.594 60.1875 260.219 59.9375C260.865 59.6875 261.51 59.3646 262.156 58.9688C262.802 58.5729 263.438 58.125 264.062 57.625C264.688 57.1042 265.271 56.5833 265.812 56.0625C266.375 55.5417 266.885 55.0417 267.344 54.5625C267.823 54.0833 268.219 53.6562 268.531 53.2812C268.948 52.8854 269.365 52.6875 269.781 52.6875C270.156 52.6875 270.458 52.8542 270.688 53.1875C270.938 53.5208 271.062 53.9479 271.062 54.4688C271.062 54.9479 270.938 55.4583 270.688 56C270.458 56.5417 270.073 57.0521 269.531 57.5312C268.469 58.6146 267.385 59.6562 266.281 60.6562C265.177 61.6354 264.042 62.5104 262.875 63.2812C261.729 64.0312 260.573 64.6354 259.406 65.0938C258.24 65.5521 257.062 65.7812 255.875 65.7812C254.188 65.7812 252.854 65.3542 251.875 64.5C250.917 63.625 250.438 62.2708 250.438 60.4375C250.438 59.4792 250.573 58.5417 250.844 57.625C251.115 56.7083 251.438 55.8229 251.812 54.9688C252.188 54.0938 252.583 53.2604 253 52.4688C253.417 51.6562 253.771 50.8854 254.062 50.1562C254.167 49.8854 254.344 49.4688 254.594 48.9062C254.865 48.3438 255.146 47.7708 255.438 47.1875C255.771 46.5 256.125 45.7708 256.5 45Z" fill="white"/>
</svg>
