<svg width="397" height="368" viewBox="0 0 397 368" fill="none" xmlns="http://www.w3.org/2000/svg">
<path d="M174.872 118.416L91.3989 78.9754L59.9814 92.3349L29.2999 130.217L63.4116 224.903L150.223 265.92L200.925 291.891L232.211 310.702L256.214 269.665L283.807 220.251L316.96 191.594L335.153 139.753L312.294 54.4136L273.712 30.1405L236.853 44.9578L202.582 91.2171L189.713 119.384L174.872 118.416Z" fill="#4E79D7"/>
<path d="M80.1074 232.791L118.203 222.586L126.852 254.877L88.7569 265.082L80.1074 232.791Z" fill="#211F22"/>
<path d="M126.851 254.876L164.946 244.672L173.595 276.963L135.5 287.167L126.851 254.876Z" fill="#211F22"/>
<path d="M173.597 276.964L211.692 266.759L220.341 299.05L182.246 309.254L173.597 276.964Z" fill="#211F22"/>
<path d="M228.02 262.386L266.115 252.182L274.764 284.472L236.669 294.677L228.02 262.386Z" fill="#211F22"/>
<path d="M257.464 219.89L295.559 209.686L304.209 241.977L266.113 252.181L257.464 219.89Z" fill="#211F22"/>
<path d="M286.91 177.396L325.005 167.192L333.655 199.483L295.56 209.687L286.91 177.396Z" fill="#211F22"/>
<path d="M38.0957 75.9495L103.402 58.4564L112.051 90.7471L46.7452 108.24L38.0957 75.9495Z" fill="#211F22"/>
<path d="M217.688 27.8435L282.994 10.3504L291.643 42.6412L226.337 60.1343L217.688 27.8435Z" fill="#211F22"/>
<path d="M112.051 90.7468L150.146 80.5425L158.796 112.833L120.7 123.038L112.051 90.7468Z" fill="#211F22"/>
<path d="M158.796 112.833L196.891 102.629L205.541 134.92L167.445 145.124L158.796 112.833Z" fill="#211F22"/>
<path d="M208.221 297.352L246.316 287.148L254.966 319.439L216.87 329.643L208.221 297.352Z" fill="#211F22"/>
<path d="M188.241 70.3384L226.337 60.1341L234.986 92.4248L196.891 102.629L188.241 70.3384Z" fill="#211F22"/>
<path d="M8.64941 118.444L46.7448 108.24L80.107 232.79L42.0117 242.994L8.64941 118.444Z" fill="#211F22"/>
<path d="M291.643 42.6409L329.738 32.4366L363.1 156.987L325.005 167.191L291.643 42.6409Z" fill="#211F22"/>
</svg>
