<svg width="93" height="91" viewBox="0 0 93 91" fill="none" xmlns="http://www.w3.org/2000/svg">
<path d="M44.6602 23.8467L25.0724 5.21655L15.6703 6.70697L4.70117 15.6495L7.0517 46.9482L27.423 66.3236L39.1756 78.2469L46.2272 86.4441L55.6293 76.0112L66.5985 63.3427L77.5676 57.3811L86.1863 43.2221V15.6495L77.5676 5.21655L66.5985 6.70697L54.0623 17.8851L48.5778 25.3371L44.6602 23.8467Z" fill="#4E79D7"/>
<path d="M10.9688 50.6743H21.9379V61.1072H10.9688V50.6743Z" fill="#211F22"/>
<path d="M21.9375 61.1069H32.9066V71.5398H21.9375V61.1069Z" fill="#211F22"/>
<path d="M32.9072 71.54H43.8764V81.9729H32.9072V71.54Z" fill="#211F22"/>
<path d="M48.5781 71.54H59.5473V81.9729H48.5781V71.54Z" fill="#211F22"/>
<path d="M59.5469 61.1069H70.516V71.5398H59.5469V61.1069Z" fill="#211F22"/>
<path d="M70.5156 50.6743H81.4848V61.1072H70.5156V50.6743Z" fill="#211F22"/>
<path d="M10.9688 0H29.773V10.4329H10.9688V0Z" fill="#211F22"/>
<path d="M62.6807 0H81.4849V10.4329H62.6807V0Z" fill="#211F22"/>
<path d="M29.7734 10.4331H40.7426V20.866H29.7734V10.4331Z" fill="#211F22"/>
<path d="M40.7422 20.8657H51.7113V31.2986H40.7422V20.8657Z" fill="#211F22"/>
<path d="M40.7422 80.4824H51.7113V90.9153H40.7422V80.4824Z" fill="#211F22"/>
<path d="M51.7109 10.4331H62.6801V20.866H51.7109V10.4331Z" fill="#211F22"/>
<path d="M0 10.4331H10.9691V50.6743H0V10.4331Z" fill="#211F22"/>
<path d="M81.4844 10.4331H92.4535V50.6743H81.4844V10.4331Z" fill="#211F22"/>
</svg>
