<svg width="221" height="221" viewBox="0 0 221 221" fill="none" xmlns="http://www.w3.org/2000/svg">
<path fill-rule="evenodd" clip-rule="evenodd" d="M87.3785 194.846C134.189 207.389 182.303 179.609 194.846 132.799C207.389 85.9893 179.61 37.8745 132.8 25.3317C85.9896 12.789 37.8748 40.5682 25.332 87.3782C12.7893 134.188 40.5685 182.303 87.3785 194.846ZM86.8246 196.913C134.776 209.762 184.065 181.305 196.913 133.353C209.762 85.4015 181.305 36.1131 133.354 23.2645C85.4019 10.4159 36.1134 38.8726 23.2648 86.8243C10.4162 134.776 38.8729 184.064 86.8246 196.913Z" fill="black"/>
<path d="M103.673 81.2772C99.9322 95.2379 93.4553 105.632 89.2064 104.494C84.9576 103.355 84.5456 91.115 88.2864 77.1544C92.0271 63.1938 98.504 52.7994 102.753 53.9379C107.002 55.0764 107.414 67.3166 103.673 81.2772Z" fill="black"/>
<path d="M147.636 93.0566C143.896 107.017 137.173 117.346 132.62 116.126C128.068 114.906 127.41 102.6 131.151 88.6393C134.891 74.6787 141.614 64.3502 146.167 65.57C150.719 66.7898 151.377 79.096 147.636 93.0566Z" fill="black"/>
<path fill-rule="evenodd" clip-rule="evenodd" d="M151.066 146.198C116.676 166.292 70.8753 154.042 52.156 119.68L54.0199 118.639C72.1481 151.917 116.616 163.854 150.008 144.344L151.066 146.198Z" fill="black"/>
<path fill-rule="evenodd" clip-rule="evenodd" d="M46.9681 125.853C50.6912 117.137 59.447 115.939 63.3302 116.407L63.0815 118.471C59.6651 118.06 52.0889 119.159 48.8804 126.67L46.9681 125.853Z" fill="black"/>
<path fill-rule="evenodd" clip-rule="evenodd" d="M154.673 154.713C155.807 145.303 148.823 139.887 145.226 138.351L144.41 140.263C147.574 141.615 153.585 146.355 152.608 154.464L154.673 154.713Z" fill="black"/>
</svg>
