<svg width="203" height="327" viewBox="0 0 203 327" fill="none" xmlns="http://www.w3.org/2000/svg">
<path d="M-125.162 284.997L-120.056 -1.16241L166.103 3.9439L160.997 290.103L-125.162 284.997Z" fill="#975DA9"/>
<path fill-rule="evenodd" clip-rule="evenodd" d="M-118.157 0.80562L-123.194 283.098L159.098 288.135L164.135 5.84293L-118.157 0.80562ZM-125.162 284.997L160.997 290.103L166.103 3.9439L-120.056 -1.16241L-125.162 284.997Z" fill="black"/>
<path d="M109.268 220.003L109.759 192.472L138.561 192.986L138.372 203.575L133.252 205.602C134.363 206.639 135.329 207.899 136.15 209.382C136.917 210.695 137.594 212.345 138.18 214.333C138.71 216.263 138.951 218.612 138.902 221.379C138.839 224.881 138.074 228.2 136.606 231.337C135.081 234.474 133.054 237.234 130.526 239.618C127.998 242.002 125.055 243.87 121.698 245.222C118.341 246.575 114.742 247.217 110.902 247.148C107.118 247.081 103.573 246.311 100.266 244.84C96.9041 243.311 94.0027 241.282 91.5622 238.753C89.1227 236.167 87.2273 233.168 85.8759 229.754C84.469 226.283 83.8004 222.599 83.8699 218.702C83.9193 215.935 84.2465 213.427 84.8516 211.178C85.4001 208.928 86.1418 206.936 87.0767 205.202C87.955 203.466 88.9705 201.959 90.1232 200.68C91.2193 199.4 92.369 198.291 93.572 197.352C96.3221 195.198 99.4564 193.672 102.975 192.775L104.367 209.747C103.565 210.354 102.846 211.104 102.208 211.996C101.686 212.778 101.188 213.758 100.715 214.936C100.243 216.057 99.9932 217.408 99.965 218.99C99.9388 220.458 100.224 221.875 100.821 223.242C101.363 224.551 102.161 225.723 103.216 226.759C104.214 227.793 105.414 228.634 106.815 229.28C108.16 229.869 109.623 230.178 111.204 230.206C112.786 230.234 114.287 229.979 115.709 229.439C117.076 228.842 118.304 228.045 119.396 227.048C120.43 226.049 121.27 224.906 121.914 223.618C122.503 222.273 122.811 220.866 122.837 219.398C122.861 218.042 122.713 216.853 122.392 215.831C122.072 214.752 121.693 213.841 121.254 213.099C120.761 212.243 120.21 211.499 119.6 210.866L119.433 220.184L109.268 220.003Z" fill="#F14857"/>
<path d="M112.678 147.626C111.097 147.598 109.623 147.883 108.256 148.48C106.834 149.019 105.606 149.788 104.572 150.787C103.48 151.784 102.64 152.955 102.051 154.301C101.407 155.588 101.072 156.966 101.046 158.435C101.019 159.903 101.305 161.32 101.902 162.687C102.443 163.996 103.242 165.168 104.296 166.204C105.295 167.239 106.494 168.079 107.895 168.725C109.24 169.314 110.704 169.623 112.285 169.651C113.866 169.679 115.368 169.424 116.79 168.884C118.156 168.287 119.385 167.49 120.476 166.493C121.511 165.494 122.35 164.351 122.995 163.063C123.584 161.718 123.891 160.311 123.917 158.843C123.944 157.375 123.686 155.986 123.144 154.677C122.547 153.31 121.75 152.11 120.751 151.075C119.696 150.04 118.496 149.227 117.151 148.638C115.75 147.992 114.259 147.655 112.678 147.626ZM112.98 130.684C116.821 130.753 120.393 131.551 123.699 133.079C127.006 134.55 129.879 136.578 132.319 139.164C134.759 141.693 136.683 144.694 138.09 148.165C139.441 151.578 140.082 155.233 140.012 159.13C139.943 163.027 139.171 166.685 137.698 170.105C136.169 173.467 134.14 176.397 131.61 178.893C129.081 181.334 126.137 183.259 122.779 184.668C119.422 186.02 115.823 186.662 111.983 186.593C108.199 186.526 104.654 185.756 101.347 184.285C97.9846 182.756 95.0833 180.727 92.6428 178.198C90.2033 175.612 88.3078 172.613 86.9565 169.199C85.5496 165.728 84.881 162.044 84.9505 158.148C85.02 154.251 85.8192 150.621 87.348 147.259C88.8213 143.839 90.8225 140.909 93.3517 138.469C95.8819 135.972 98.8538 134.048 102.267 132.696C105.626 131.287 109.197 130.617 112.98 130.684Z" fill="#F14857"/>
<path d="M113.766 86.6579C112.185 86.6296 110.711 86.914 109.344 87.5111C107.922 88.0506 106.694 88.8196 105.659 89.818C104.568 90.8154 103.728 91.9867 103.139 93.332C102.495 94.6198 102.16 95.9979 102.133 97.4662C102.107 98.9345 102.393 100.352 102.99 101.718C103.531 103.027 104.329 104.2 105.384 105.235C106.383 106.27 107.582 107.111 108.983 107.757C110.328 108.346 111.792 108.654 113.373 108.683C114.954 108.711 116.456 108.455 117.878 107.916C119.244 107.319 120.473 106.521 121.564 105.524C122.599 104.526 123.438 103.383 124.083 102.095C124.672 100.749 124.979 99.3427 125.005 97.8743C125.032 96.406 124.774 95.0174 124.232 93.7084C123.635 92.3419 122.838 91.1414 121.839 90.1067C120.784 89.071 119.584 88.2587 118.239 87.6698C116.838 87.0234 115.347 86.6861 113.766 86.6579ZM114.068 69.7157C117.908 69.7842 121.481 70.5824 124.787 72.1102C128.094 73.5815 130.967 75.61 133.407 78.1956C135.847 80.7248 137.771 83.725 139.178 87.1961C140.529 90.6097 141.17 94.2648 141.1 98.1615C141.031 102.058 140.259 105.716 138.786 109.136C137.257 112.498 135.228 115.428 132.698 117.925C130.168 120.365 127.225 122.29 123.867 123.699C120.509 125.051 116.911 125.693 113.071 125.625C109.287 125.557 105.742 124.788 102.435 123.317C99.0726 121.788 96.1712 119.759 93.7307 117.23C91.2912 114.644 89.3958 111.644 88.0444 108.231C86.6376 104.76 85.9689 101.076 86.0384 97.179C86.108 93.2823 86.9071 89.6528 88.4359 86.2906C89.9092 82.8709 91.9105 79.9408 94.4397 77.5003C96.9699 75.0033 99.9418 73.0791 103.355 71.7277C106.714 70.3189 110.284 69.6482 114.068 69.7157Z" fill="#F14857"/>
<path d="M125.987 42.8355C126.014 41.3672 125.756 39.9786 125.214 38.6696C124.617 37.3031 123.82 36.1026 122.821 35.0679C121.766 34.0322 120.566 33.22 119.221 32.631C117.82 31.9846 116.329 31.6473 114.748 31.6191C113.167 31.5909 111.693 31.8753 110.326 32.4723C108.905 33.0119 107.676 33.7808 106.642 34.7792C105.55 35.7766 104.71 36.9479 104.121 38.2932C103.477 39.581 103.142 40.9591 103.116 42.4274L103.055 45.8158L125.927 46.224L125.987 42.8355ZM87.5049 62.4859L87.8677 42.1553C87.9412 38.0327 88.6864 34.2611 90.1033 30.8404C91.5201 27.4196 93.4362 24.5163 95.8514 22.1302C98.2676 19.6877 101.126 17.818 104.425 16.5211C107.725 15.2241 111.267 14.6094 115.05 14.6769C118.891 14.7455 122.436 15.4866 125.688 16.9005C128.882 18.3133 131.644 20.2833 133.971 22.8105C136.3 25.2812 138.111 28.251 139.405 31.7201C140.699 35.1892 141.309 38.9851 141.235 43.1076L140.873 63.4382L87.5049 62.4859Z" fill="#F14857"/>
<path d="M102.652 230.286L103.143 202.755L131.945 203.268L131.756 213.857L126.635 215.884C127.747 216.921 128.713 218.181 129.534 219.665C130.301 220.978 130.978 222.628 131.564 224.616C132.094 226.546 132.335 228.894 132.285 231.662C132.223 235.163 131.458 238.482 129.989 241.62C128.465 244.756 126.438 247.516 123.91 249.9C121.382 252.284 118.439 254.153 115.082 255.505C111.725 256.857 108.126 257.499 104.286 257.431C100.502 257.363 96.9569 256.594 93.6501 255.122C90.2879 253.594 87.3865 251.565 84.946 249.036C82.5065 246.45 80.6111 243.45 79.2597 240.037C77.8528 236.566 77.1842 232.882 77.2537 228.985C77.3031 226.218 77.6303 223.71 78.2354 221.461C78.7839 219.211 79.5256 217.219 80.4604 215.484C81.3388 213.749 82.3543 212.241 83.5069 210.963C84.6031 209.683 85.7528 208.574 86.9558 207.635C89.7059 205.481 92.8402 203.955 96.3587 203.057L97.7506 220.03C96.9488 220.637 96.2293 221.386 95.592 222.279C95.0696 223.06 94.5719 224.04 94.099 225.218C93.627 226.34 93.377 227.691 93.3487 229.272C93.3225 230.74 93.608 232.158 94.205 233.524C94.7465 234.833 95.5448 236.006 96.5996 237.041C97.598 238.076 98.7976 238.916 100.198 239.563C101.544 240.152 103.007 240.46 104.588 240.489C106.169 240.517 107.671 240.261 109.093 239.722C110.459 239.125 111.688 238.327 112.779 237.33C113.814 236.332 114.654 235.188 115.298 233.901C115.887 232.555 116.194 231.149 116.221 229.68C116.245 228.325 116.097 227.136 115.776 226.113C115.456 225.034 115.077 224.124 114.638 223.381C114.145 222.525 113.593 221.781 112.983 221.149L112.817 230.467L102.652 230.286Z" fill="white"/>
<path d="M106.062 157.909C104.48 157.881 103.007 158.165 101.64 158.762C100.218 159.302 98.99 160.071 97.9553 161.069C96.8642 162.066 96.0241 163.238 95.4352 164.583C94.7908 165.871 94.4555 167.249 94.4293 168.717C94.4031 170.186 94.6885 171.603 95.2855 172.969C95.8271 174.278 96.6253 175.451 97.6802 176.486C98.6786 177.521 99.8781 178.362 101.279 179.008C102.624 179.597 104.087 179.905 105.669 179.934C107.25 179.962 108.752 179.706 110.174 179.167C111.54 178.57 112.769 177.772 113.86 176.775C114.895 175.777 115.734 174.634 116.379 173.346C116.967 172 117.275 170.594 117.301 169.125C117.327 167.657 117.07 166.268 116.528 164.959C115.931 163.593 115.133 162.392 114.135 161.358C113.08 160.322 111.88 159.51 110.535 158.921C109.134 158.274 107.643 157.937 106.062 157.909ZM106.364 140.967C110.204 141.035 113.777 141.833 117.083 143.361C120.39 144.832 123.263 146.861 125.702 149.447C128.143 151.976 130.067 154.976 131.473 158.447C132.825 161.861 133.466 165.516 133.396 169.413C133.327 173.309 132.555 176.967 131.082 180.387C129.553 183.749 127.524 186.679 124.993 189.176C122.464 191.616 119.521 193.541 116.162 194.95C112.805 196.302 109.207 196.944 105.366 196.876C101.583 196.808 98.0374 196.039 94.7307 194.568C91.3684 193.039 88.4671 191.01 86.0266 188.481C83.5871 185.895 81.6916 182.895 80.3402 179.482C78.9334 176.011 78.2647 172.327 78.3343 168.43C78.4038 164.533 79.203 160.904 80.7318 157.542C82.2051 154.122 84.2063 151.192 86.7355 148.751C89.2657 146.254 92.2376 144.33 95.6512 142.979C99.0094 141.57 102.58 140.899 106.364 140.967Z" fill="white"/>
<path d="M107.15 96.9403C105.568 96.9121 104.095 97.1965 102.728 97.7936C101.306 98.3331 100.078 99.1021 99.0432 100.1C97.9521 101.098 97.1121 102.269 96.5231 103.614C95.8787 104.902 95.5435 106.28 95.5172 107.749C95.491 109.217 95.7765 110.634 96.3735 112.001C96.915 113.31 97.7133 114.482 98.7681 115.518C99.7665 116.552 100.966 117.393 102.367 118.039C103.712 118.628 105.175 118.937 106.757 118.965C108.338 118.993 109.84 118.738 111.261 118.198C112.628 117.601 113.857 116.804 114.948 115.807C115.983 114.808 116.822 113.665 117.466 112.377C118.055 111.032 118.363 109.625 118.389 108.157C118.415 106.688 118.158 105.3 117.616 103.991C117.019 102.624 116.221 101.424 115.223 100.389C114.168 99.3535 112.968 98.5412 111.623 97.9523C110.222 97.3059 108.731 96.9686 107.15 96.9403ZM107.452 79.9982C111.292 80.0667 114.865 80.8649 118.171 82.3927C121.478 83.8639 124.351 85.8924 126.79 88.4781C129.231 91.0073 131.155 94.0074 132.561 97.4785C133.913 100.892 134.554 104.547 134.484 108.444C134.415 112.341 133.643 115.999 132.17 119.419C130.641 122.781 128.612 125.71 126.081 128.207C123.552 130.648 120.609 132.573 117.25 133.981C113.893 135.334 110.295 135.976 106.454 135.907C102.671 135.84 99.1254 135.07 95.8186 133.599C92.4564 132.07 89.555 130.041 87.1145 127.512C84.675 124.926 82.7796 121.927 81.4282 118.513C80.0213 115.042 79.3527 111.358 79.4222 107.461C79.4917 103.565 80.2909 99.9353 81.8197 96.5731C83.293 93.1534 85.2943 90.2233 87.8235 87.7828C90.3536 85.2858 93.3256 83.3616 96.7392 82.0102C100.097 80.6014 103.668 79.9307 107.452 79.9982Z" fill="white"/>
<path d="M119.371 53.118C119.397 51.6497 119.14 50.261 118.598 48.9521C118.001 47.5856 117.203 46.3851 116.205 45.3504C115.15 44.3147 113.95 43.5024 112.605 42.9135C111.204 42.2671 109.713 41.9298 108.132 41.9016C106.551 41.8734 105.077 42.1578 103.71 42.7548C102.288 43.2943 101.06 44.0633 100.025 45.0617C98.9342 46.0591 98.0942 47.2304 97.5053 48.5757C96.8609 49.8635 96.5256 51.2416 96.4994 52.7099L96.4389 56.0983L119.311 56.5064L119.371 53.118ZM80.8887 72.7684L81.2515 52.4378C81.325 48.3152 82.0702 44.5435 83.4871 41.1228C84.9039 37.7021 86.8199 34.7987 89.2352 32.4127C91.6514 29.9702 94.5094 28.1004 97.809 26.8035C101.109 25.5066 104.65 24.8919 108.434 24.9594C112.274 25.0279 115.82 25.7691 119.071 27.1829C122.266 28.5958 125.027 30.5658 127.355 33.0929C129.684 35.5636 131.495 38.5335 132.789 42.0026C134.083 45.4717 134.693 49.2675 134.619 53.3901L134.256 73.7207L80.8887 72.7684Z" fill="white"/>
<path fill-rule="evenodd" clip-rule="evenodd" d="M101.921 230.991L102.438 202.024L132.676 202.563L132.465 214.349L127.91 216.152C128.754 217.072 129.502 218.126 130.158 219.31C130.961 220.686 131.657 222.391 132.253 224.413L132.255 224.419L132.256 224.425C132.81 226.441 133.054 228.863 133.004 231.674C132.939 235.276 132.151 238.694 130.64 241.924L130.638 241.929L130.635 241.934C129.073 245.148 126.994 247.979 124.403 250.423C121.807 252.871 118.787 254.786 115.35 256.171C111.899 257.561 108.204 258.219 104.273 258.149C100.398 258.079 96.7571 257.291 93.3585 255.778L93.3531 255.776C89.9129 254.212 86.936 252.132 84.4296 249.534L84.4239 249.528C81.9206 246.875 79.9771 243.798 78.5934 240.304C77.1495 236.74 76.4649 232.961 76.5361 228.972C76.5862 226.16 76.9186 223.595 77.54 221.282C78.0996 218.99 78.8591 216.944 79.8242 215.152C80.7251 213.373 81.7718 211.817 82.9677 210.489C84.09 209.179 85.2717 208.038 86.5138 207.069C89.3453 204.851 92.5705 203.283 96.1814 202.361L97.005 202.151L98.4986 220.364L98.1842 220.602C97.448 221.159 96.7803 221.852 96.183 222.687C95.698 223.415 95.224 224.344 94.7655 225.486L94.7633 225.491L94.761 225.497C94.3334 226.513 94.0939 227.769 94.0669 229.285C94.0425 230.648 94.3068 231.963 94.8632 233.237L94.866 233.243L94.8687 233.25C95.3717 234.466 96.1139 235.558 97.1029 236.529L97.1098 236.536L97.1165 236.543C98.0472 237.507 99.1699 238.297 100.493 238.908C101.743 239.454 103.11 239.744 104.601 239.771C106.089 239.797 107.494 239.558 108.822 239.057C110.107 238.493 111.262 237.743 112.288 236.807C113.256 235.871 114.042 234.801 114.648 233.596C115.194 232.343 115.479 231.035 115.503 229.667C115.526 228.37 115.383 227.261 115.091 226.328L115.089 226.323L115.088 226.317C114.78 225.279 114.422 224.426 114.02 223.747L114.016 223.74C113.902 223.542 113.786 223.351 113.666 223.167L113.522 231.198L101.921 230.991ZM112.984 221.149C113.227 221.401 113.462 221.672 113.687 221.961C114.025 222.394 114.342 222.868 114.639 223.381C115.077 224.124 115.456 225.034 115.776 226.113C116.097 227.136 116.245 228.325 116.221 229.68C116.195 231.149 115.887 232.555 115.298 233.901C114.654 235.188 113.814 236.332 112.78 237.33C111.688 238.327 110.46 239.125 109.093 239.722C107.671 240.261 106.17 240.517 104.588 240.489C103.007 240.46 101.544 240.152 100.199 239.563C98.7978 238.916 97.5982 238.076 96.5998 237.041C95.545 236.006 94.7468 234.833 94.2052 233.524C93.6082 232.158 93.3228 230.74 93.349 229.272C93.3772 227.691 93.6273 226.34 94.0992 225.218C94.5722 224.04 95.0698 223.06 95.5922 222.279C96.2295 221.386 96.9491 220.637 97.7508 220.03L96.3589 203.057C96.1222 203.118 95.8873 203.181 95.654 203.247C92.4204 204.163 89.5211 205.625 86.9561 207.635C85.753 208.574 84.6034 209.683 83.5072 210.963C82.3545 212.241 81.339 213.749 80.4607 215.484C79.5259 217.219 78.7842 219.211 78.2356 221.461C77.6305 223.71 77.3033 226.218 77.2539 228.985C77.1844 232.882 77.8531 236.566 79.2599 240.037C80.6113 243.45 82.5067 246.45 84.9462 249.036C87.3867 251.565 90.2881 253.594 93.6503 255.122C96.9571 256.594 100.502 257.363 104.286 257.431C108.126 257.499 111.725 256.857 115.082 255.505C118.439 254.153 121.382 252.284 123.91 249.9C126.438 247.516 128.465 244.756 129.99 241.62C131.458 238.482 132.223 235.163 132.286 231.662C132.335 228.894 132.094 226.546 131.564 224.616C130.978 222.628 130.301 220.978 129.534 219.665C128.853 218.435 128.073 217.359 127.193 216.436C127.011 216.246 126.826 216.062 126.636 215.884L131.756 213.857L131.945 203.268L103.143 202.755L102.652 230.286L112.817 230.467L112.984 221.149ZM101.912 159.427L101.895 159.433C100.559 159.94 99.4148 160.659 98.4541 161.586L98.4471 161.592L98.4399 161.599C97.4223 162.529 96.6416 163.618 96.0932 164.871L96.0858 164.888L96.0775 164.904C95.4821 166.094 95.1718 167.367 95.1474 168.73C95.1231 170.093 95.3874 171.409 95.9437 172.682L95.9465 172.688L95.9492 172.695C96.4523 173.911 97.1944 175.003 98.1834 175.974L98.1904 175.981L98.1971 175.988C99.1277 176.952 100.25 177.742 101.573 178.353C102.824 178.899 104.19 179.189 105.682 179.216C107.169 179.242 108.574 179.003 109.902 178.502C111.188 177.938 112.342 177.188 113.369 176.252C114.337 175.316 115.123 174.246 115.728 173.041C116.274 171.788 116.559 170.48 116.584 169.113C116.608 167.741 116.368 166.453 115.868 165.24C115.305 163.955 114.558 162.831 113.625 161.863C112.634 160.892 111.509 160.131 110.247 159.579L110.241 159.576L110.234 159.573C108.926 158.969 107.533 158.653 106.049 158.627C104.565 158.6 103.194 158.867 101.928 159.42L101.912 159.427ZM114.135 161.358C115.134 162.392 115.931 163.593 116.528 164.959C117.07 166.268 117.328 167.657 117.301 169.125C117.275 170.594 116.968 172 116.379 173.346C115.734 174.634 114.895 175.777 113.86 176.775C112.769 177.772 111.54 178.57 110.174 179.167C108.752 179.706 107.25 179.962 105.669 179.934C104.088 179.905 102.624 179.597 101.279 179.008C99.8784 178.362 98.6788 177.521 97.6804 176.486C96.6255 175.451 95.8273 174.278 95.2858 172.969C94.6887 171.603 94.4033 170.186 94.4295 168.717C94.4557 167.249 94.791 165.871 95.4354 164.583C96.0243 163.238 96.8644 162.066 97.9555 161.069C98.9902 160.071 100.218 159.302 101.64 158.762C103.007 158.165 104.481 157.881 106.062 157.909C107.643 157.937 109.134 158.274 110.535 158.921C111.88 159.51 113.08 160.322 114.135 161.358ZM132.139 158.177L132.141 158.183C133.53 161.69 134.185 165.44 134.114 169.425C134.043 173.411 133.254 177.162 131.742 180.671L131.739 180.678L131.736 180.684C130.172 184.123 128.093 187.126 125.498 189.687L125.492 189.693C122.897 192.197 119.878 194.17 116.44 195.612L116.436 195.614L116.431 195.616C112.979 197.007 109.284 197.664 105.354 197.594C101.478 197.525 97.8377 196.736 94.439 195.224L94.4337 195.221C90.9934 193.657 88.0165 191.577 85.5101 188.979L85.5045 188.973C83.0011 186.32 81.0577 183.243 79.674 179.749C78.23 176.185 77.5454 172.406 77.6166 168.417C77.6878 164.43 78.5057 160.706 80.0754 157.251C81.5834 153.753 83.6357 150.746 86.2345 148.237C88.8333 145.673 91.8844 143.699 95.3806 142.314C98.8323 140.867 102.5 140.18 106.377 140.249C110.31 140.319 113.98 141.137 117.38 142.707C120.769 144.216 123.718 146.297 126.222 148.951C128.729 151.55 130.701 154.628 132.139 158.177ZM125.703 149.447C123.263 146.861 120.39 144.832 117.083 143.361C113.778 141.833 110.205 141.035 106.364 140.967C102.581 140.899 99.0096 141.57 95.6515 142.979C92.2378 144.33 89.2659 146.254 86.7357 148.751C84.2065 151.192 82.2053 154.122 80.732 157.542C79.2032 160.904 78.404 164.533 78.3345 168.43C78.265 172.327 78.9336 176.011 80.3405 179.482C81.6919 182.895 83.5873 185.895 86.0268 188.481C88.4673 191.01 91.3687 193.039 94.7309 194.568C98.0377 196.039 101.583 196.808 105.367 196.876C109.207 196.944 112.806 196.302 116.163 194.95C119.521 193.541 122.465 191.616 124.994 189.176C127.524 186.679 129.553 183.749 131.082 180.387C132.555 176.967 133.327 173.309 133.396 169.413C133.466 165.516 132.825 161.861 131.474 158.447C130.067 154.976 128.143 151.976 125.703 149.447ZM103 98.4586L102.983 98.4649C101.647 98.9719 100.503 99.6901 99.542 100.617L99.535 100.624L99.5279 100.63C98.5103 101.561 97.7295 102.65 97.1811 103.902L97.1737 103.919L97.1655 103.936C96.57 105.126 96.2597 106.398 96.2354 107.761C96.211 109.125 96.4753 110.44 97.0317 111.713L97.0345 111.72L97.0372 111.726C97.5402 112.942 98.2824 114.034 99.2714 115.005L99.2783 115.012L99.285 115.019C100.216 115.984 101.339 116.773 102.662 117.385C103.912 117.931 105.279 118.221 106.77 118.247C108.257 118.274 109.662 118.035 110.99 117.533C112.276 116.969 113.43 116.22 114.457 115.283C115.425 114.347 116.211 113.278 116.816 112.072C117.362 110.819 117.647 109.511 117.671 108.144C117.696 106.773 117.456 105.485 116.956 104.272C116.393 102.987 115.646 101.863 114.713 100.895C113.722 99.923 112.597 99.1624 111.335 98.61L111.329 98.6072L111.322 98.6042C110.014 98.0006 108.621 97.6847 107.137 97.6582C105.653 97.6317 104.282 97.8983 103.016 98.4515L103 98.4586ZM115.223 100.389C116.222 101.424 117.019 102.624 117.616 103.991C118.158 105.3 118.416 106.688 118.389 108.157C118.363 109.625 118.056 111.032 117.467 112.377C116.822 113.665 115.983 114.808 114.948 115.807C113.857 116.804 112.628 117.601 111.262 118.198C109.84 118.738 108.338 118.993 106.757 118.965C105.176 118.937 103.712 118.628 102.367 118.039C100.966 117.393 99.7667 116.552 98.7683 115.518C97.7135 114.482 96.9153 113.31 96.3737 112.001C95.7767 110.634 95.4913 109.217 95.5175 107.749C95.5437 106.28 95.879 104.902 96.5234 103.614C97.1123 102.269 97.9523 101.098 99.0435 100.1C100.078 99.1021 101.306 98.3331 102.728 97.7936C104.095 97.1965 105.569 96.9121 107.15 96.9403C108.731 96.9686 110.222 97.3059 111.623 97.9523C112.968 98.5412 114.168 99.3535 115.223 100.389ZM133.227 97.2088L133.229 97.2142C134.618 100.721 135.273 104.471 135.202 108.457C135.131 112.442 134.342 116.193 132.83 119.703L132.827 119.709L132.824 119.716C131.26 123.155 129.181 126.158 126.586 128.718L126.58 128.724C123.985 131.229 120.966 133.202 117.528 134.644L117.524 134.646L117.519 134.647C114.067 136.038 110.372 136.695 106.442 136.625C102.566 136.556 98.9256 135.767 95.527 134.255L95.5216 134.253C92.0814 132.688 89.1045 130.608 86.5981 128.011L86.5925 128.005C84.0891 125.352 82.1457 122.275 80.762 118.78C79.318 115.217 78.6334 111.437 78.7046 107.449C78.7757 103.462 79.5936 99.7371 81.1634 96.2824C82.6713 92.7845 84.7236 89.7771 87.3224 87.2687C89.9213 84.7048 92.9723 82.7303 96.4685 81.3452C99.9202 79.8982 103.588 79.2111 107.465 79.2803C111.398 79.3505 115.068 80.1683 118.468 81.7388C121.857 83.2473 124.806 85.3289 127.31 87.9821C129.817 90.5811 131.788 93.6594 133.227 97.2088ZM126.791 88.4781C124.351 85.8924 121.478 83.8639 118.171 82.3927C114.865 80.8649 111.292 80.0667 107.452 79.9982C103.669 79.9307 100.098 80.6014 96.7394 82.0102C93.3258 83.3616 90.3539 85.2858 87.8237 87.7828C85.2945 90.2233 83.2932 93.1534 81.8199 96.5731C80.2911 99.9353 79.492 103.565 79.4224 107.461C79.3529 111.358 80.0216 115.042 81.4284 118.513C82.7798 121.927 84.6752 124.926 87.1147 127.512C89.5552 130.041 92.4566 132.07 95.8188 133.599C99.1256 135.07 102.671 135.84 106.455 135.907C110.295 135.976 113.893 135.334 117.251 133.981C120.609 132.573 123.552 130.648 126.082 128.207C128.612 125.71 130.641 122.781 132.17 119.419C133.643 115.999 134.415 112.341 134.484 108.444C134.554 104.547 133.913 100.892 132.562 97.4785C131.155 94.0074 129.231 91.0073 126.791 88.4781ZM112.311 43.5684L112.304 43.5654C110.996 42.9618 109.604 42.6459 108.119 42.6195C106.635 42.593 105.264 42.8595 103.998 43.4127L103.982 43.4198L103.965 43.4261C102.629 43.9331 101.485 44.6513 100.524 45.5784L100.517 45.5851L100.51 45.5916C99.4924 46.5218 98.7117 47.6109 98.1632 48.8636L98.1558 48.8805L98.1476 48.897C97.5522 50.087 97.2418 51.3594 97.2175 52.7227L97.1698 55.3932L118.606 55.7757L118.654 53.1052C118.678 51.7341 118.438 50.4457 117.938 49.2329C117.375 47.9475 116.627 46.8235 115.695 45.8558C114.704 44.8841 113.579 44.1236 112.317 43.5712L112.311 43.5684ZM119.311 56.5064L96.4391 56.0983L96.4996 52.7099C96.5258 51.2416 96.8611 49.8635 97.5055 48.5757C98.0944 47.2304 98.9345 46.0591 100.026 45.0617C101.06 44.0633 102.289 43.2943 103.71 42.7548C105.077 42.1577 106.551 41.8734 108.132 41.9016C109.713 41.9298 111.204 42.2671 112.605 42.9135C113.95 43.5024 115.15 44.3147 116.205 45.3504C117.204 46.3851 118.001 47.5856 118.598 48.9521C119.14 50.2611 119.398 51.6497 119.371 53.118L119.311 56.5064ZM80.1582 73.4734L80.5338 52.425C80.6088 48.2226 81.369 44.3609 82.8239 40.8481C84.2736 37.3483 86.24 34.3633 88.7281 31.9046C91.2162 29.3902 94.1583 27.4671 97.5466 26.1353C100.94 24.8016 104.576 24.1725 108.447 24.2415C112.374 24.3116 116.013 25.0701 119.358 26.5245L119.362 26.5263C122.644 27.9776 125.486 30.004 127.88 32.6033C130.279 35.1492 132.138 38.2024 133.462 41.7517C134.79 45.3141 135.412 49.2006 135.337 53.4029L134.962 74.4514L80.1582 73.4734ZM127.355 33.0929C125.028 30.5657 122.266 28.5958 119.072 27.1829C115.82 25.7691 112.275 25.028 108.434 24.9594C104.651 24.8919 101.109 25.5066 97.8093 26.8035C94.5096 28.1004 91.6516 29.9702 89.2354 32.4127C86.8202 34.7988 84.9041 37.7021 83.4873 41.1228C82.0704 44.5435 81.3252 48.3152 81.2517 52.4378L80.8889 72.7684L134.257 73.7207L134.619 53.3901C134.693 49.2675 134.083 45.4717 132.789 42.0026C131.495 38.5335 129.684 35.5636 127.355 33.0929Z" fill="black"/>
</svg>
