<svg width="150" height="139" viewBox="0 0 150 139" fill="none" xmlns="http://www.w3.org/2000/svg">
<path d="M75 0L89.2218 34.8937L123.953 16.7655L111.011 52.0974L150 59.2171L115.95 78.4551L140.954 107.491L101.728 101.634L101.047 139L75 110.788L48.9528 139L48.2718 101.634L9.04611 107.491L34.05 78.4551L0 59.2171L38.9892 52.0974L26.0472 16.7655L60.7782 34.8937L75 0Z" fill="white"/>
<path d="M64.0349 53.3312L58.7915 57.714L53.2239 77.4768L59.1562 87.2495L80.7659 92.7567L86.1316 90.3115L91.0409 87.1145L96.542 65.2165L93.6111 59.8096L90.8433 56.986L69.2335 51.4788L64.0349 53.3312Z" fill="#F1C851"/>
<path fill-rule="evenodd" clip-rule="evenodd" d="M92.7398 58.9518L66.9744 52.3854L68.0879 48.4329L93.8534 54.9992L92.7398 58.9518Z" fill="#211F22"/>
<path fill-rule="evenodd" clip-rule="evenodd" d="M82.4947 95.3155L56.7293 88.7492L57.8428 84.7966L83.6082 91.363L82.4947 95.3155Z" fill="#211F22"/>
<path fill-rule="evenodd" clip-rule="evenodd" d="M95.7815 63.9633L91.6257 62.9042L92.7393 58.9517L96.895 60.0107L95.7815 63.9633Z" fill="#211F22"/>
<path fill-rule="evenodd" clip-rule="evenodd" d="M65.8606 56.3381L61.7048 55.279L62.8184 51.3264L66.9741 52.3855L65.8606 56.3381Z" fill="#211F22"/>
<path fill-rule="evenodd" clip-rule="evenodd" d="M69.7561 66.227L65.6003 65.1679L66.7139 61.2153L70.8696 62.2744L69.7561 66.227Z" fill="#211F22"/>
<path fill-rule="evenodd" clip-rule="evenodd" d="M67.1945 75.3176L63.0388 74.2585L64.1523 70.3059L68.3081 71.365L67.1945 75.3176Z" fill="#211F22"/>
<path fill-rule="evenodd" clip-rule="evenodd" d="M79.5879 82.7127L66.0818 79.2707L67.1953 75.3181L80.7014 78.7601L79.5879 82.7127Z" fill="#211F22"/>
<path fill-rule="evenodd" clip-rule="evenodd" d="M87.2092 70.6755L83.0535 69.6164L84.167 65.6638L88.3227 66.7229L87.2092 70.6755Z" fill="#211F22"/>
<path fill-rule="evenodd" clip-rule="evenodd" d="M84.6486 79.7663L80.4929 78.7072L81.6064 74.7546L85.7622 75.8137L84.6486 79.7663Z" fill="#211F22"/>
<path fill-rule="evenodd" clip-rule="evenodd" d="M57.843 84.7966L53.6873 83.7375L54.8008 79.7849L58.9565 80.844L57.843 84.7966Z" fill="#211F22"/>
<path fill-rule="evenodd" clip-rule="evenodd" d="M87.7649 92.422L83.6091 91.363L84.7227 87.4104L88.8784 88.4695L87.7649 92.422Z" fill="#211F22"/>
<path fill-rule="evenodd" clip-rule="evenodd" d="M99.9365 65.0227L93.0327 89.5286L88.877 88.4695L95.7808 63.9636L99.9365 65.0227Z" fill="#211F22"/>
<path fill-rule="evenodd" clip-rule="evenodd" d="M61.7051 55.279L54.8012 79.7849L50.6455 78.7258L57.5493 54.2199L61.7051 55.279Z" fill="#211F22"/>
</svg>
