<svg width="275" height="275" viewBox="0 0 275 275" fill="none" xmlns="http://www.w3.org/2000/svg">
<path d="M146.654 85.9298L146.836 87.5549L147.594 86.1055L185.553 13.4599L164.665 92.7189L164.248 94.3003L165.478 93.2223L227.117 39.195L179.007 105.556L178.047 106.88L179.584 106.319L256.577 78.2066L187.744 122.707L186.371 123.595L188.006 123.627L269.955 125.226L189.695 141.856L188.093 142.188L189.607 142.809L265.445 173.903L184.597 160.417L182.983 160.148L184.17 161.273L243.655 217.664L173.138 175.883L171.731 175.049L172.431 176.527L207.528 250.598L156.866 186.165L155.855 184.879L155.974 186.51L161.943 268.258L137.978 189.874L137.5 188.31L137.022 189.874L113.057 268.258L119.026 186.51L119.145 184.879L118.134 186.165L67.4725 250.598L102.569 176.527L103.269 175.049L101.862 175.883L31.3455 217.664L90.8297 161.273L92.0166 160.148L90.4035 160.417L9.55517 173.903L85.3934 142.809L86.9065 142.188L85.3052 141.856L5.04463 125.226L86.9944 123.627L88.6294 123.595L87.2561 122.707L18.4228 78.2066L95.4164 106.319L96.9526 106.88L95.9927 105.556L47.8831 39.1949L109.522 93.2223L110.752 94.3003L110.335 92.7189L89.4466 13.4599L127.406 86.1055L128.164 87.5549L128.346 85.9298L137.5 4.47716L146.654 85.9298Z" fill="#E3868E" stroke="black"/>
<path d="M130.243 112.134C130.243 119.807 135.572 128.971 137.916 133.234C140.474 128.758 146.228 120.318 146.228 112.134C146.228 103.949 143.031 101.264 137.916 101.264C132.801 101.264 130.243 104.461 130.243 112.134Z" fill="#030106"/>
<path d="M152.993 117.569C146.348 121.405 141.075 130.602 138.555 134.764C143.71 134.741 153.897 135.505 160.985 131.412C168.073 127.32 168.8 123.209 166.243 118.779C163.685 114.349 159.638 113.732 152.993 117.569Z" fill="#030106"/>
<path d="M122.713 117.569C129.357 121.405 134.63 130.602 137.15 134.764C131.995 134.741 121.808 135.505 114.72 131.412C107.632 127.32 106.905 123.209 109.462 118.779C112.02 114.349 116.068 113.732 122.713 117.569Z" fill="#030106"/>
<path d="M130.243 158.587C130.243 150.914 135.572 141.749 137.916 137.487C140.474 141.963 146.228 150.403 146.228 158.587C146.228 166.772 143.031 169.457 137.916 169.457C132.801 169.457 130.243 166.26 130.243 158.587Z" fill="#030106"/>
<path d="M152.993 153.152C146.348 149.316 141.075 140.119 138.555 135.957C143.71 135.98 153.897 135.217 160.985 139.309C168.073 143.401 168.8 147.512 166.243 151.942C163.685 156.372 159.638 156.989 152.993 153.152Z" fill="#030106"/>
<path d="M122.713 153.152C129.357 149.316 134.63 140.119 137.15 135.957C131.995 135.98 121.808 135.217 114.72 139.309C107.632 143.401 106.905 147.512 109.462 151.942C112.02 156.372 116.068 156.989 122.713 153.152Z" fill="#030106"/>
<circle cx="137.917" cy="134.513" r="8.31234" fill="#CAA3E4"/>
</svg>
