<svg width="174" height="174" viewBox="0 0 174 174" fill="none" xmlns="http://www.w3.org/2000/svg">
<path d="M66.6592 27.7354C66.6592 47.3134 80.9026 70.6981 87.1697 81.5748C94.0066 70.1543 109.389 48.6186 109.389 27.7354C109.389 6.85228 100.843 0 87.1697 0C73.496 0 66.6592 8.15748 66.6592 27.7354Z" fill="#030106"/>
<path d="M127.471 41.6032C109.708 51.3922 95.6136 74.8588 88.879 85.4779C102.659 85.4193 129.889 87.3677 148.836 76.9261C167.783 66.4845 169.727 55.9938 162.89 44.6905C156.053 33.3871 145.234 31.8142 127.471 41.6032Z" fill="#030106"/>
<path d="M46.529 41.6032C64.2916 51.3922 78.3864 74.8588 85.121 85.4779C71.341 85.4193 44.1107 87.3677 25.1638 76.9261C6.21702 66.4845 4.27312 55.9938 11.11 44.6905C17.9468 33.3871 28.7663 31.8142 46.529 41.6032Z" fill="#030106"/>
<path d="M66.6592 146.265C66.6592 126.687 80.9026 103.302 87.1697 92.4252C94.0066 103.846 109.389 125.381 109.389 146.265C109.389 167.148 100.843 174 87.1697 174C73.496 174 66.6592 165.843 66.6592 146.265Z" fill="#030106"/>
<path d="M127.471 132.397C109.708 122.608 95.6136 99.1412 88.879 88.5221C102.659 88.5807 129.889 86.6323 148.836 97.0739C167.783 107.515 169.727 118.006 162.89 129.31C156.053 140.613 145.234 142.186 127.471 132.397Z" fill="#030106"/>
<path d="M46.529 132.397C64.2916 122.608 78.3864 99.1412 85.121 88.5221C71.341 88.5807 44.1107 86.6323 25.1638 97.0739C6.21702 107.515 4.27312 118.006 11.11 129.31C17.9468 140.613 28.7663 142.186 46.529 132.397Z" fill="#030106"/>
<ellipse cx="87.169" cy="84.8375" rx="22.2197" ry="21.2094" fill="#CEF101"/>
</svg>
